G04 #@! TF.FileFunction,Paste,Top*
%FSLAX46Y46*%
G04 Gerber Fmt 4.6, Leading zero omitted, Abs format (unit mm)*
G04 Created by KiCad (PCBNEW 4.0.2-4+6225~38~ubuntu15.10.1-stable) date Thu 31 Mar 2016 04:29:23 PM CDT*
%MOMM*%
G01*
G04 APERTURE LIST*
%ADD10C,0.100000*%
%ADD11R,0.800100X0.800100*%
%ADD12R,0.900000X0.500000*%
%ADD13R,1.198880X1.198880*%
%ADD14R,1.300000X0.700000*%
G04 APERTURE END LIST*
D10*
D11*
X87700000Y-172900000D03*
X85800000Y-172900000D03*
X86750000Y-174898980D03*
X354200000Y-68300000D03*
X356100000Y-68300000D03*
X355150000Y-66301020D03*
D12*
X78050000Y-174350000D03*
X78050000Y-172850000D03*
D11*
X290300000Y-166500000D03*
X288400000Y-166500000D03*
X289350000Y-168498980D03*
X125200000Y-172901020D03*
X123300000Y-172901020D03*
X124250000Y-174900000D03*
D13*
X83100000Y-166800000D03*
X83100000Y-168898040D03*
X170250000Y-166700980D03*
X170250000Y-168799020D03*
X256700000Y-166701960D03*
X256700000Y-168800000D03*
X341400000Y-166551960D03*
X341400000Y-168650000D03*
D11*
X79300000Y-166700000D03*
X77400000Y-166700000D03*
X78350000Y-168698980D03*
X166700000Y-166751020D03*
X164800000Y-166751020D03*
X165750000Y-168750000D03*
X252400000Y-166800000D03*
X250500000Y-166800000D03*
X251450000Y-168798980D03*
X337550000Y-166449240D03*
X335650000Y-166449240D03*
X336600000Y-168448220D03*
X66700000Y-74800000D03*
X68600000Y-74800000D03*
X67650000Y-72801020D03*
X154550000Y-74998980D03*
X156450000Y-74998980D03*
X155500000Y-73000000D03*
X240850000Y-75300760D03*
X242750000Y-75300760D03*
X241800000Y-73301780D03*
X325500000Y-75300000D03*
X327400000Y-75300000D03*
X326450000Y-73301020D03*
D13*
X63200000Y-72701960D03*
X63200000Y-74800000D03*
X151000000Y-75049020D03*
X151000000Y-72950980D03*
X236900000Y-75198040D03*
X236900000Y-73100000D03*
X322200000Y-75249020D03*
X322200000Y-73150980D03*
X121100000Y-166600000D03*
X121100000Y-168698040D03*
X208400000Y-166800000D03*
X208400000Y-168898040D03*
X295400000Y-166550980D03*
X295400000Y-168649020D03*
X379000000Y-167001960D03*
X379000000Y-169100000D03*
D11*
X116600000Y-166300000D03*
X114700000Y-166300000D03*
X115650000Y-168298980D03*
X204600000Y-166600000D03*
X202700000Y-166600000D03*
X203650000Y-168598980D03*
X374600000Y-166901020D03*
X372700000Y-166901020D03*
X373650000Y-168900000D03*
X106313131Y-74559379D03*
X108213131Y-74559379D03*
X107263131Y-72560399D03*
X193200000Y-75400000D03*
X195100000Y-75400000D03*
X194150000Y-73401020D03*
X279975000Y-75423980D03*
X281875000Y-75423980D03*
X280925000Y-73425000D03*
X364100000Y-75398980D03*
X366000000Y-75398980D03*
X365050000Y-73400000D03*
D13*
X101313131Y-75257419D03*
X101313131Y-73159379D03*
X189449020Y-75049020D03*
X189449020Y-72950980D03*
X275600000Y-75298040D03*
X275600000Y-73200000D03*
X360300000Y-75299020D03*
X360300000Y-73200980D03*
D11*
X174450000Y-172751020D03*
X172550000Y-172751020D03*
X173500000Y-174750000D03*
X262300000Y-172849240D03*
X260400000Y-172849240D03*
X261350000Y-174848220D03*
X347400000Y-173150000D03*
X345500000Y-173150000D03*
X346450000Y-175148980D03*
X58100000Y-69000000D03*
X60000000Y-69000000D03*
X59050000Y-67001020D03*
X145300000Y-69998980D03*
X147200000Y-69998980D03*
X146250000Y-68000000D03*
X230650000Y-69198980D03*
X232550000Y-69198980D03*
X231600000Y-67200000D03*
X316700000Y-68300000D03*
X318600000Y-68300000D03*
X317650000Y-66301020D03*
X212900000Y-172600000D03*
X211000000Y-172600000D03*
X211950000Y-174598980D03*
X300700000Y-172300000D03*
X298800000Y-172300000D03*
X299750000Y-174298980D03*
X383200000Y-174250000D03*
X381300000Y-174250000D03*
X382250000Y-176248980D03*
X93513131Y-68359379D03*
X95413131Y-68359379D03*
X94463131Y-66360399D03*
X184500000Y-69400000D03*
X186400000Y-69400000D03*
X185450000Y-67401020D03*
X269825000Y-69173980D03*
X271725000Y-69173980D03*
X270775000Y-67175000D03*
D14*
X231000000Y-73650000D03*
X231000000Y-75550000D03*
D12*
X59650000Y-73200000D03*
X59650000Y-74700000D03*
X114950000Y-175000000D03*
X114950000Y-173500000D03*
X94550000Y-75250000D03*
X94550000Y-73750000D03*
X184900000Y-73700000D03*
X184900000Y-75200000D03*
X165250000Y-174550000D03*
X165250000Y-173050000D03*
X251100000Y-174550000D03*
X251100000Y-173050000D03*
X336150000Y-174900000D03*
X336150000Y-173400000D03*
X316750000Y-73200000D03*
X316750000Y-71700000D03*
X119050000Y-173050000D03*
X119050000Y-174550000D03*
X203550000Y-174650000D03*
X203550000Y-173150000D03*
X289100000Y-174100000D03*
X289100000Y-172600000D03*
X373800000Y-176050000D03*
X373800000Y-174550000D03*
X270000000Y-73350000D03*
X270000000Y-71850000D03*
X354650000Y-73650000D03*
X354650000Y-72150000D03*
X81950000Y-172700000D03*
X81950000Y-174200000D03*
X169300000Y-172800000D03*
X169300000Y-174300000D03*
X254200000Y-174500000D03*
X254200000Y-173000000D03*
X339700000Y-174950000D03*
X339700000Y-173450000D03*
X65250000Y-68500000D03*
X65250000Y-67000000D03*
X151400000Y-68100000D03*
X151400000Y-69600000D03*
X238700000Y-68650000D03*
X238700000Y-67150000D03*
X324400000Y-68350000D03*
X324400000Y-66850000D03*
X206300000Y-174650000D03*
X206300000Y-173150000D03*
X292000000Y-174100000D03*
X292000000Y-172600000D03*
X376250000Y-176050000D03*
X376250000Y-174550000D03*
X192250000Y-69300000D03*
X192250000Y-67800000D03*
X278800000Y-69050000D03*
X278800000Y-67550000D03*
X362550000Y-68350000D03*
X362550000Y-66850000D03*
X87700000Y-168550000D03*
X87700000Y-170050000D03*
X174500000Y-170350000D03*
X174500000Y-168850000D03*
X262300000Y-170300000D03*
X262300000Y-168800000D03*
X347500000Y-170750000D03*
X347500000Y-169250000D03*
X154600000Y-69600000D03*
X154600000Y-68100000D03*
X241400000Y-68750000D03*
X241400000Y-67250000D03*
X326550000Y-68500000D03*
X326550000Y-67000000D03*
X67250000Y-68550000D03*
X67250000Y-67050000D03*
X125400000Y-168750000D03*
X125400000Y-170250000D03*
X212900000Y-170350000D03*
X212900000Y-168850000D03*
X300600000Y-170150000D03*
X300600000Y-168650000D03*
X383300000Y-170600000D03*
X383300000Y-169100000D03*
X108000000Y-69000000D03*
X108000000Y-67500000D03*
X281050000Y-69100000D03*
X281050000Y-67600000D03*
X364750000Y-68300000D03*
X364750000Y-66800000D03*
X145300000Y-73600000D03*
X145300000Y-72100000D03*
X105800000Y-67500000D03*
X105800000Y-69000000D03*
X194600000Y-69400000D03*
X194600000Y-67900000D03*
M02*
