M48
;DRILL file {KiCad 4.0.2-4+6225~38~ubuntu15.10.1-stable} date Thu 31 Mar 2016 04:29:34 PM CDT
;FORMAT={-:-/ absolute / inch / decimal}
FMAT,2
INCH,TZ
T1C0.016
T2C0.070
T3C0.079
T4C0.100
%
G90
G05
M72
T1
X2.4016Y-2.6378
X2.5039Y-2.6811
T2
X15.8Y-4.575
X15.8Y-4.95
T3
X2.5Y-3.65
X2.5Y-5.85
X3.25Y-3.65
X3.25Y-5.85
X4.Y-3.65
X4.Y-5.85
X4.75Y-3.65
X4.75Y-5.85
X5.95Y-3.66
X5.95Y-5.86
X6.7Y-3.66
X6.7Y-5.86
X7.45Y-3.66
X7.45Y-5.86
X8.2Y-3.66
X8.2Y-5.86
X9.36Y-3.66
X9.36Y-5.86
X10.11Y-3.66
X10.11Y-5.86
X10.86Y-3.66
X10.86Y-5.86
X11.61Y-3.66
X11.61Y-5.86
X12.69Y-3.66
X12.69Y-5.86
X13.44Y-3.66
X13.44Y-5.86
X14.19Y-3.66
X14.19Y-5.86
X14.94Y-3.66
X14.94Y-5.86
T4
X15.7492Y-5.3598
X15.7492Y-5.5598
X15.7492Y-5.7268
X15.7492Y-5.9268
T0
M30
