G04 #@! TF.FileFunction,Legend,Top*
%FSLAX46Y46*%
G04 Gerber Fmt 4.6, Leading zero omitted, Abs format (unit mm)*
G04 Created by KiCad (PCBNEW 4.0.2-4+6225~38~ubuntu15.10.1-stable) date Thu 31 Mar 2016 04:29:23 PM CDT*
%MOMM*%
G01*
G04 APERTURE LIST*
%ADD10C,0.100000*%
%ADD11C,0.200000*%
%ADD12C,0.300000*%
%ADD13C,0.150000*%
G04 APERTURE END LIST*
D10*
D11*
X50800000Y-167640000D02*
X51435000Y-167640000D01*
X48260000Y-184404000D02*
X48260000Y-173228000D01*
X409956000Y-184404000D02*
X48260000Y-184404000D01*
X48260000Y-173228000D02*
X48260000Y-66548000D01*
D12*
X401066856Y-175770571D02*
X401066856Y-177270571D01*
X401066856Y-175842000D02*
X401209713Y-175770571D01*
X401495427Y-175770571D01*
X401638284Y-175842000D01*
X401709713Y-175913429D01*
X401781142Y-176056286D01*
X401781142Y-176484857D01*
X401709713Y-176627714D01*
X401638284Y-176699143D01*
X401495427Y-176770571D01*
X401209713Y-176770571D01*
X401066856Y-176699143D01*
X402423999Y-176770571D02*
X402423999Y-175270571D01*
X403066856Y-176770571D02*
X403066856Y-175984857D01*
X402995427Y-175842000D01*
X402852570Y-175770571D01*
X402638285Y-175770571D01*
X402495427Y-175842000D01*
X402423999Y-175913429D01*
X403638285Y-175770571D02*
X403995428Y-176770571D01*
X404352570Y-175770571D02*
X403995428Y-176770571D01*
X403852570Y-177127714D01*
X403781142Y-177199143D01*
X403638285Y-177270571D01*
X404852570Y-176699143D02*
X404995427Y-176770571D01*
X405281142Y-176770571D01*
X405423999Y-176699143D01*
X405495427Y-176556286D01*
X405495427Y-176484857D01*
X405423999Y-176342000D01*
X405281142Y-176270571D01*
X405066856Y-176270571D01*
X404923999Y-176199143D01*
X404852570Y-176056286D01*
X404852570Y-175984857D01*
X404923999Y-175842000D01*
X405066856Y-175770571D01*
X405281142Y-175770571D01*
X405423999Y-175842000D01*
X406138285Y-176770571D02*
X406138285Y-175770571D01*
X406138285Y-175270571D02*
X406066856Y-175342000D01*
X406138285Y-175413429D01*
X406209713Y-175342000D01*
X406138285Y-175270571D01*
X406138285Y-175413429D01*
X406852571Y-176770571D02*
X406852571Y-175770571D01*
X406852571Y-175270571D02*
X406781142Y-175342000D01*
X406852571Y-175413429D01*
X406923999Y-175342000D01*
X406852571Y-175270571D01*
X406852571Y-175413429D01*
X407566857Y-176770571D02*
X407566857Y-175770571D01*
X407566857Y-175270571D02*
X407495428Y-175342000D01*
X407566857Y-175413429D01*
X407638285Y-175342000D01*
X407566857Y-175270571D01*
X407566857Y-175413429D01*
X393352571Y-179170571D02*
X393352571Y-178384857D01*
X393281142Y-178242000D01*
X393138285Y-178170571D01*
X392852571Y-178170571D01*
X392709714Y-178242000D01*
X393352571Y-179099143D02*
X393209714Y-179170571D01*
X392852571Y-179170571D01*
X392709714Y-179099143D01*
X392638285Y-178956286D01*
X392638285Y-178813429D01*
X392709714Y-178670571D01*
X392852571Y-178599143D01*
X393209714Y-178599143D01*
X393352571Y-178527714D01*
X394066857Y-178170571D02*
X394066857Y-179170571D01*
X394066857Y-178313429D02*
X394138285Y-178242000D01*
X394281143Y-178170571D01*
X394495428Y-178170571D01*
X394638285Y-178242000D01*
X394709714Y-178384857D01*
X394709714Y-179170571D01*
X396066857Y-179170571D02*
X396066857Y-177670571D01*
X396066857Y-179099143D02*
X395924000Y-179170571D01*
X395638286Y-179170571D01*
X395495428Y-179099143D01*
X395424000Y-179027714D01*
X395352571Y-178884857D01*
X395352571Y-178456286D01*
X395424000Y-178313429D01*
X395495428Y-178242000D01*
X395638286Y-178170571D01*
X395924000Y-178170571D01*
X396066857Y-178242000D01*
X396638286Y-178170571D02*
X396995429Y-179170571D01*
X397352571Y-178170571D02*
X396995429Y-179170571D01*
X396852571Y-179527714D01*
X396781143Y-179599143D01*
X396638286Y-179670571D01*
X398852571Y-178456286D02*
X398781143Y-178384857D01*
X398638286Y-178313429D01*
X398495428Y-178313429D01*
X398352571Y-178384857D01*
X398281143Y-178456286D01*
X398209714Y-178599143D01*
X398209714Y-178742000D01*
X398281143Y-178884857D01*
X398352571Y-178956286D01*
X398495428Y-179027714D01*
X398638286Y-179027714D01*
X398781143Y-178956286D01*
X398852571Y-178884857D01*
X398852571Y-178313429D02*
X398852571Y-178884857D01*
X398924000Y-178956286D01*
X398995428Y-178956286D01*
X399138286Y-178884857D01*
X399209714Y-178742000D01*
X399209714Y-178384857D01*
X399066857Y-178170571D01*
X398852571Y-178027714D01*
X398566857Y-177956286D01*
X398281143Y-178027714D01*
X398066857Y-178170571D01*
X397924000Y-178384857D01*
X397852571Y-178670571D01*
X397924000Y-178956286D01*
X398066857Y-179170571D01*
X398281143Y-179313429D01*
X398566857Y-179384857D01*
X398852571Y-179313429D01*
X399066857Y-179170571D01*
X399852571Y-178170571D02*
X399852571Y-179670571D01*
X399852571Y-178242000D02*
X399995428Y-178170571D01*
X400281142Y-178170571D01*
X400423999Y-178242000D01*
X400495428Y-178313429D01*
X400566857Y-178456286D01*
X400566857Y-178884857D01*
X400495428Y-179027714D01*
X400423999Y-179099143D01*
X400281142Y-179170571D01*
X399995428Y-179170571D01*
X399852571Y-179099143D01*
X401066857Y-178170571D02*
X401424000Y-179170571D01*
X401781142Y-178170571D02*
X401424000Y-179170571D01*
X401281142Y-179527714D01*
X401209714Y-179599143D01*
X401066857Y-179670571D01*
X402138285Y-178170571D02*
X402709714Y-178170571D01*
X402352571Y-179170571D02*
X402352571Y-177884857D01*
X402423999Y-177742000D01*
X402566857Y-177670571D01*
X402709714Y-177670571D01*
X403209714Y-179170571D02*
X403209714Y-178170571D01*
X403209714Y-177670571D02*
X403138285Y-177742000D01*
X403209714Y-177813429D01*
X403281142Y-177742000D01*
X403209714Y-177670571D01*
X403209714Y-177813429D01*
X403924000Y-179027714D02*
X403995428Y-179099143D01*
X403924000Y-179170571D01*
X403852571Y-179099143D01*
X403924000Y-179027714D01*
X403924000Y-179170571D01*
X404852572Y-179170571D02*
X404709714Y-179099143D01*
X404638286Y-179027714D01*
X404566857Y-178884857D01*
X404566857Y-178456286D01*
X404638286Y-178313429D01*
X404709714Y-178242000D01*
X404852572Y-178170571D01*
X405066857Y-178170571D01*
X405209714Y-178242000D01*
X405281143Y-178313429D01*
X405352572Y-178456286D01*
X405352572Y-178884857D01*
X405281143Y-179027714D01*
X405209714Y-179099143D01*
X405066857Y-179170571D01*
X404852572Y-179170571D01*
X405995429Y-179170571D02*
X405995429Y-178170571D01*
X405995429Y-178456286D02*
X406066857Y-178313429D01*
X406138286Y-178242000D01*
X406281143Y-178170571D01*
X406424000Y-178170571D01*
X407566857Y-178170571D02*
X407566857Y-179384857D01*
X407495428Y-179527714D01*
X407424000Y-179599143D01*
X407281143Y-179670571D01*
X407066857Y-179670571D01*
X406924000Y-179599143D01*
X407566857Y-179099143D02*
X407424000Y-179170571D01*
X407138286Y-179170571D01*
X406995428Y-179099143D01*
X406924000Y-179027714D01*
X406852571Y-178884857D01*
X406852571Y-178456286D01*
X406924000Y-178313429D01*
X406995428Y-178242000D01*
X407138286Y-178170571D01*
X407424000Y-178170571D01*
X407566857Y-178242000D01*
D11*
X419100000Y-165735000D02*
X419100000Y-166370000D01*
X419100000Y-165100000D02*
X419100000Y-165735000D01*
X409956000Y-51308000D02*
X409956000Y-66548000D01*
X48260000Y-51308000D02*
X409956000Y-51308000D01*
X48260000Y-66548000D02*
X48260000Y-51308000D01*
X409956000Y-173228000D02*
X409956000Y-184404000D01*
X409956000Y-66548000D02*
X409956000Y-173228000D01*
D13*
X85450840Y-174551000D02*
X85499100Y-174551000D01*
X88249820Y-173849960D02*
X88249820Y-174551000D01*
X88249820Y-174551000D02*
X88000900Y-174551000D01*
X85450840Y-174551000D02*
X85250180Y-174551000D01*
X85250180Y-174551000D02*
X85250180Y-173849960D01*
X356449160Y-66649000D02*
X356400900Y-66649000D01*
X353650180Y-67350040D02*
X353650180Y-66649000D01*
X353650180Y-66649000D02*
X353899100Y-66649000D01*
X356449160Y-66649000D02*
X356649820Y-66649000D01*
X356649820Y-66649000D02*
X356649820Y-67350040D01*
X78725000Y-173100000D02*
X78725000Y-174100000D01*
X77375000Y-174100000D02*
X77375000Y-173100000D01*
X288050840Y-168151000D02*
X288099100Y-168151000D01*
X290849820Y-167449960D02*
X290849820Y-168151000D01*
X290849820Y-168151000D02*
X290600900Y-168151000D01*
X288050840Y-168151000D02*
X287850180Y-168151000D01*
X287850180Y-168151000D02*
X287850180Y-167449960D01*
X52070000Y-81280000D02*
X52070000Y-160020000D01*
X52070000Y-160020000D02*
X132080000Y-160020000D01*
X132080000Y-160020000D02*
X132080000Y-81280000D01*
X132080000Y-81280000D02*
X52070000Y-81280000D01*
X122950840Y-174552020D02*
X122999100Y-174552020D01*
X125749820Y-173850980D02*
X125749820Y-174552020D01*
X125749820Y-174552020D02*
X125500900Y-174552020D01*
X122950840Y-174552020D02*
X122750180Y-174552020D01*
X122750180Y-174552020D02*
X122750180Y-173850980D01*
X83850000Y-169449020D02*
X83850000Y-166749020D01*
X82350000Y-169449020D02*
X82350000Y-166749020D01*
X83250000Y-167949020D02*
X83000000Y-167949020D01*
X83000000Y-167949020D02*
X83150000Y-168099020D01*
X82750000Y-168199020D02*
X83450000Y-168199020D01*
X83100000Y-167849020D02*
X83100000Y-167499020D01*
X83100000Y-168199020D02*
X82750000Y-167849020D01*
X82750000Y-167849020D02*
X83450000Y-167849020D01*
X83450000Y-167849020D02*
X83100000Y-168199020D01*
X139700000Y-81534000D02*
X139700000Y-160274000D01*
X139700000Y-160274000D02*
X219710000Y-160274000D01*
X219710000Y-160274000D02*
X219710000Y-81534000D01*
X219710000Y-81534000D02*
X139700000Y-81534000D01*
X310896000Y-81534000D02*
X310896000Y-160274000D01*
X310896000Y-160274000D02*
X390906000Y-160274000D01*
X390906000Y-160274000D02*
X390906000Y-81534000D01*
X390906000Y-81534000D02*
X310896000Y-81534000D01*
X226314000Y-81534000D02*
X226314000Y-160274000D01*
X226314000Y-160274000D02*
X306324000Y-160274000D01*
X306324000Y-160274000D02*
X306324000Y-81534000D01*
X306324000Y-81534000D02*
X226314000Y-81534000D01*
X397002000Y-130556000D02*
X397002000Y-111506000D01*
X397002000Y-111506000D02*
X409575000Y-111506000D01*
X409575000Y-111506000D02*
X409575000Y-130556000D01*
X409575000Y-130556000D02*
X397002000Y-130556000D01*
X171000000Y-169350000D02*
X171000000Y-166650000D01*
X169500000Y-169350000D02*
X169500000Y-166650000D01*
X170400000Y-167850000D02*
X170150000Y-167850000D01*
X170150000Y-167850000D02*
X170300000Y-168000000D01*
X169900000Y-168100000D02*
X170600000Y-168100000D01*
X170250000Y-167750000D02*
X170250000Y-167400000D01*
X170250000Y-168100000D02*
X169900000Y-167750000D01*
X169900000Y-167750000D02*
X170600000Y-167750000D01*
X170600000Y-167750000D02*
X170250000Y-168100000D01*
X257450000Y-169350980D02*
X257450000Y-166650980D01*
X255950000Y-169350980D02*
X255950000Y-166650980D01*
X256850000Y-167850980D02*
X256600000Y-167850980D01*
X256600000Y-167850980D02*
X256750000Y-168000980D01*
X256350000Y-168100980D02*
X257050000Y-168100980D01*
X256700000Y-167750980D02*
X256700000Y-167400980D01*
X256700000Y-168100980D02*
X256350000Y-167750980D01*
X256350000Y-167750980D02*
X257050000Y-167750980D01*
X257050000Y-167750980D02*
X256700000Y-168100980D01*
X342150000Y-169200980D02*
X342150000Y-166500980D01*
X340650000Y-169200980D02*
X340650000Y-166500980D01*
X341550000Y-167700980D02*
X341300000Y-167700980D01*
X341300000Y-167700980D02*
X341450000Y-167850980D01*
X341050000Y-167950980D02*
X341750000Y-167950980D01*
X341400000Y-167600980D02*
X341400000Y-167250980D01*
X341400000Y-167950980D02*
X341050000Y-167600980D01*
X341050000Y-167600980D02*
X341750000Y-167600980D01*
X341750000Y-167600980D02*
X341400000Y-167950980D01*
X77050840Y-168351000D02*
X77099100Y-168351000D01*
X79849820Y-167649960D02*
X79849820Y-168351000D01*
X79849820Y-168351000D02*
X79600900Y-168351000D01*
X77050840Y-168351000D02*
X76850180Y-168351000D01*
X76850180Y-168351000D02*
X76850180Y-167649960D01*
X164450840Y-168402020D02*
X164499100Y-168402020D01*
X167249820Y-167700980D02*
X167249820Y-168402020D01*
X167249820Y-168402020D02*
X167000900Y-168402020D01*
X164450840Y-168402020D02*
X164250180Y-168402020D01*
X164250180Y-168402020D02*
X164250180Y-167700980D01*
X250150840Y-168451000D02*
X250199100Y-168451000D01*
X252949820Y-167749960D02*
X252949820Y-168451000D01*
X252949820Y-168451000D02*
X252700900Y-168451000D01*
X250150840Y-168451000D02*
X249950180Y-168451000D01*
X249950180Y-168451000D02*
X249950180Y-167749960D01*
X335300840Y-168100240D02*
X335349100Y-168100240D01*
X338099820Y-167399200D02*
X338099820Y-168100240D01*
X338099820Y-168100240D02*
X337850900Y-168100240D01*
X335300840Y-168100240D02*
X335100180Y-168100240D01*
X335100180Y-168100240D02*
X335100180Y-167399200D01*
X68949160Y-73149000D02*
X68900900Y-73149000D01*
X66150180Y-73850040D02*
X66150180Y-73149000D01*
X66150180Y-73149000D02*
X66399100Y-73149000D01*
X68949160Y-73149000D02*
X69149820Y-73149000D01*
X69149820Y-73149000D02*
X69149820Y-73850040D01*
X156799160Y-73347980D02*
X156750900Y-73347980D01*
X154000180Y-74049020D02*
X154000180Y-73347980D01*
X154000180Y-73347980D02*
X154249100Y-73347980D01*
X156799160Y-73347980D02*
X156999820Y-73347980D01*
X156999820Y-73347980D02*
X156999820Y-74049020D01*
X243099160Y-73649760D02*
X243050900Y-73649760D01*
X240300180Y-74350800D02*
X240300180Y-73649760D01*
X240300180Y-73649760D02*
X240549100Y-73649760D01*
X243099160Y-73649760D02*
X243299820Y-73649760D01*
X243299820Y-73649760D02*
X243299820Y-74350800D01*
X327749160Y-73649000D02*
X327700900Y-73649000D01*
X324950180Y-74350040D02*
X324950180Y-73649000D01*
X324950180Y-73649000D02*
X325199100Y-73649000D01*
X327749160Y-73649000D02*
X327949820Y-73649000D01*
X327949820Y-73649000D02*
X327949820Y-74350040D01*
X63950000Y-75350980D02*
X63950000Y-72650980D01*
X62450000Y-75350980D02*
X62450000Y-72650980D01*
X63350000Y-73850980D02*
X63100000Y-73850980D01*
X63100000Y-73850980D02*
X63250000Y-74000980D01*
X62850000Y-74100980D02*
X63550000Y-74100980D01*
X63200000Y-73750980D02*
X63200000Y-73400980D01*
X63200000Y-74100980D02*
X62850000Y-73750980D01*
X62850000Y-73750980D02*
X63550000Y-73750980D01*
X63550000Y-73750980D02*
X63200000Y-74100980D01*
X150250000Y-72400000D02*
X150250000Y-75100000D01*
X151750000Y-72400000D02*
X151750000Y-75100000D01*
X150850000Y-73900000D02*
X151100000Y-73900000D01*
X151100000Y-73900000D02*
X150950000Y-73750000D01*
X151350000Y-73650000D02*
X150650000Y-73650000D01*
X151000000Y-74000000D02*
X151000000Y-74350000D01*
X151000000Y-73650000D02*
X151350000Y-74000000D01*
X151350000Y-74000000D02*
X150650000Y-74000000D01*
X150650000Y-74000000D02*
X151000000Y-73650000D01*
X236150000Y-72549020D02*
X236150000Y-75249020D01*
X237650000Y-72549020D02*
X237650000Y-75249020D01*
X236750000Y-74049020D02*
X237000000Y-74049020D01*
X237000000Y-74049020D02*
X236850000Y-73899020D01*
X237250000Y-73799020D02*
X236550000Y-73799020D01*
X236900000Y-74149020D02*
X236900000Y-74499020D01*
X236900000Y-73799020D02*
X237250000Y-74149020D01*
X237250000Y-74149020D02*
X236550000Y-74149020D01*
X236550000Y-74149020D02*
X236900000Y-73799020D01*
X321450000Y-72600000D02*
X321450000Y-75300000D01*
X322950000Y-72600000D02*
X322950000Y-75300000D01*
X322050000Y-74100000D02*
X322300000Y-74100000D01*
X322300000Y-74100000D02*
X322150000Y-73950000D01*
X322550000Y-73850000D02*
X321850000Y-73850000D01*
X322200000Y-74200000D02*
X322200000Y-74550000D01*
X322200000Y-73850000D02*
X322550000Y-74200000D01*
X322550000Y-74200000D02*
X321850000Y-74200000D01*
X321850000Y-74200000D02*
X322200000Y-73850000D01*
X121850000Y-169249020D02*
X121850000Y-166549020D01*
X120350000Y-169249020D02*
X120350000Y-166549020D01*
X121250000Y-167749020D02*
X121000000Y-167749020D01*
X121000000Y-167749020D02*
X121150000Y-167899020D01*
X120750000Y-167999020D02*
X121450000Y-167999020D01*
X121100000Y-167649020D02*
X121100000Y-167299020D01*
X121100000Y-167999020D02*
X120750000Y-167649020D01*
X120750000Y-167649020D02*
X121450000Y-167649020D01*
X121450000Y-167649020D02*
X121100000Y-167999020D01*
X209150000Y-169449020D02*
X209150000Y-166749020D01*
X207650000Y-169449020D02*
X207650000Y-166749020D01*
X208550000Y-167949020D02*
X208300000Y-167949020D01*
X208300000Y-167949020D02*
X208450000Y-168099020D01*
X208050000Y-168199020D02*
X208750000Y-168199020D01*
X208400000Y-167849020D02*
X208400000Y-167499020D01*
X208400000Y-168199020D02*
X208050000Y-167849020D01*
X208050000Y-167849020D02*
X208750000Y-167849020D01*
X208750000Y-167849020D02*
X208400000Y-168199020D01*
X296150000Y-169200000D02*
X296150000Y-166500000D01*
X294650000Y-169200000D02*
X294650000Y-166500000D01*
X295550000Y-167700000D02*
X295300000Y-167700000D01*
X295300000Y-167700000D02*
X295450000Y-167850000D01*
X295050000Y-167950000D02*
X295750000Y-167950000D01*
X295400000Y-167600000D02*
X295400000Y-167250000D01*
X295400000Y-167950000D02*
X295050000Y-167600000D01*
X295050000Y-167600000D02*
X295750000Y-167600000D01*
X295750000Y-167600000D02*
X295400000Y-167950000D01*
X379750000Y-169650980D02*
X379750000Y-166950980D01*
X378250000Y-169650980D02*
X378250000Y-166950980D01*
X379150000Y-168150980D02*
X378900000Y-168150980D01*
X378900000Y-168150980D02*
X379050000Y-168300980D01*
X378650000Y-168400980D02*
X379350000Y-168400980D01*
X379000000Y-168050980D02*
X379000000Y-167700980D01*
X379000000Y-168400980D02*
X378650000Y-168050980D01*
X378650000Y-168050980D02*
X379350000Y-168050980D01*
X379350000Y-168050980D02*
X379000000Y-168400980D01*
X114350840Y-167951000D02*
X114399100Y-167951000D01*
X117149820Y-167249960D02*
X117149820Y-167951000D01*
X117149820Y-167951000D02*
X116900900Y-167951000D01*
X114350840Y-167951000D02*
X114150180Y-167951000D01*
X114150180Y-167951000D02*
X114150180Y-167249960D01*
X202350840Y-168251000D02*
X202399100Y-168251000D01*
X205149820Y-167549960D02*
X205149820Y-168251000D01*
X205149820Y-168251000D02*
X204900900Y-168251000D01*
X202350840Y-168251000D02*
X202150180Y-168251000D01*
X202150180Y-168251000D02*
X202150180Y-167549960D01*
X372350840Y-168552020D02*
X372399100Y-168552020D01*
X375149820Y-167850980D02*
X375149820Y-168552020D01*
X375149820Y-168552020D02*
X374900900Y-168552020D01*
X372350840Y-168552020D02*
X372150180Y-168552020D01*
X372150180Y-168552020D02*
X372150180Y-167850980D01*
X108562291Y-72908379D02*
X108514031Y-72908379D01*
X105763311Y-73609419D02*
X105763311Y-72908379D01*
X105763311Y-72908379D02*
X106012231Y-72908379D01*
X108562291Y-72908379D02*
X108762951Y-72908379D01*
X108762951Y-72908379D02*
X108762951Y-73609419D01*
X195449160Y-73749000D02*
X195400900Y-73749000D01*
X192650180Y-74450040D02*
X192650180Y-73749000D01*
X192650180Y-73749000D02*
X192899100Y-73749000D01*
X195449160Y-73749000D02*
X195649820Y-73749000D01*
X195649820Y-73749000D02*
X195649820Y-74450040D01*
X282224160Y-73772980D02*
X282175900Y-73772980D01*
X279425180Y-74474020D02*
X279425180Y-73772980D01*
X279425180Y-73772980D02*
X279674100Y-73772980D01*
X282224160Y-73772980D02*
X282424820Y-73772980D01*
X282424820Y-73772980D02*
X282424820Y-74474020D01*
X366349160Y-73747980D02*
X366300900Y-73747980D01*
X363550180Y-74449020D02*
X363550180Y-73747980D01*
X363550180Y-73747980D02*
X363799100Y-73747980D01*
X366349160Y-73747980D02*
X366549820Y-73747980D01*
X366549820Y-73747980D02*
X366549820Y-74449020D01*
X100563131Y-72608399D02*
X100563131Y-75308399D01*
X102063131Y-72608399D02*
X102063131Y-75308399D01*
X101163131Y-74108399D02*
X101413131Y-74108399D01*
X101413131Y-74108399D02*
X101263131Y-73958399D01*
X101663131Y-73858399D02*
X100963131Y-73858399D01*
X101313131Y-74208399D02*
X101313131Y-74558399D01*
X101313131Y-73858399D02*
X101663131Y-74208399D01*
X101663131Y-74208399D02*
X100963131Y-74208399D01*
X100963131Y-74208399D02*
X101313131Y-73858399D01*
X188699020Y-72400000D02*
X188699020Y-75100000D01*
X190199020Y-72400000D02*
X190199020Y-75100000D01*
X189299020Y-73900000D02*
X189549020Y-73900000D01*
X189549020Y-73900000D02*
X189399020Y-73750000D01*
X189799020Y-73650000D02*
X189099020Y-73650000D01*
X189449020Y-74000000D02*
X189449020Y-74350000D01*
X189449020Y-73650000D02*
X189799020Y-74000000D01*
X189799020Y-74000000D02*
X189099020Y-74000000D01*
X189099020Y-74000000D02*
X189449020Y-73650000D01*
X274850000Y-72649020D02*
X274850000Y-75349020D01*
X276350000Y-72649020D02*
X276350000Y-75349020D01*
X275450000Y-74149020D02*
X275700000Y-74149020D01*
X275700000Y-74149020D02*
X275550000Y-73999020D01*
X275950000Y-73899020D02*
X275250000Y-73899020D01*
X275600000Y-74249020D02*
X275600000Y-74599020D01*
X275600000Y-73899020D02*
X275950000Y-74249020D01*
X275950000Y-74249020D02*
X275250000Y-74249020D01*
X275250000Y-74249020D02*
X275600000Y-73899020D01*
X359550000Y-72650000D02*
X359550000Y-75350000D01*
X361050000Y-72650000D02*
X361050000Y-75350000D01*
X360150000Y-74150000D02*
X360400000Y-74150000D01*
X360400000Y-74150000D02*
X360250000Y-74000000D01*
X360650000Y-73900000D02*
X359950000Y-73900000D01*
X360300000Y-74250000D02*
X360300000Y-74600000D01*
X360300000Y-73900000D02*
X360650000Y-74250000D01*
X360650000Y-74250000D02*
X359950000Y-74250000D01*
X359950000Y-74250000D02*
X360300000Y-73900000D01*
X172200840Y-174402020D02*
X172249100Y-174402020D01*
X174999820Y-173700980D02*
X174999820Y-174402020D01*
X174999820Y-174402020D02*
X174750900Y-174402020D01*
X172200840Y-174402020D02*
X172000180Y-174402020D01*
X172000180Y-174402020D02*
X172000180Y-173700980D01*
X260050840Y-174500240D02*
X260099100Y-174500240D01*
X262849820Y-173799200D02*
X262849820Y-174500240D01*
X262849820Y-174500240D02*
X262600900Y-174500240D01*
X260050840Y-174500240D02*
X259850180Y-174500240D01*
X259850180Y-174500240D02*
X259850180Y-173799200D01*
X345150840Y-174801000D02*
X345199100Y-174801000D01*
X347949820Y-174099960D02*
X347949820Y-174801000D01*
X347949820Y-174801000D02*
X347700900Y-174801000D01*
X345150840Y-174801000D02*
X344950180Y-174801000D01*
X344950180Y-174801000D02*
X344950180Y-174099960D01*
X60349160Y-67349000D02*
X60300900Y-67349000D01*
X57550180Y-68050040D02*
X57550180Y-67349000D01*
X57550180Y-67349000D02*
X57799100Y-67349000D01*
X60349160Y-67349000D02*
X60549820Y-67349000D01*
X60549820Y-67349000D02*
X60549820Y-68050040D01*
X147549160Y-68347980D02*
X147500900Y-68347980D01*
X144750180Y-69049020D02*
X144750180Y-68347980D01*
X144750180Y-68347980D02*
X144999100Y-68347980D01*
X147549160Y-68347980D02*
X147749820Y-68347980D01*
X147749820Y-68347980D02*
X147749820Y-69049020D01*
X232899160Y-67547980D02*
X232850900Y-67547980D01*
X230100180Y-68249020D02*
X230100180Y-67547980D01*
X230100180Y-67547980D02*
X230349100Y-67547980D01*
X232899160Y-67547980D02*
X233099820Y-67547980D01*
X233099820Y-67547980D02*
X233099820Y-68249020D01*
X318949160Y-66649000D02*
X318900900Y-66649000D01*
X316150180Y-67350040D02*
X316150180Y-66649000D01*
X316150180Y-66649000D02*
X316399100Y-66649000D01*
X318949160Y-66649000D02*
X319149820Y-66649000D01*
X319149820Y-66649000D02*
X319149820Y-67350040D01*
X210650840Y-174251000D02*
X210699100Y-174251000D01*
X213449820Y-173549960D02*
X213449820Y-174251000D01*
X213449820Y-174251000D02*
X213200900Y-174251000D01*
X210650840Y-174251000D02*
X210450180Y-174251000D01*
X210450180Y-174251000D02*
X210450180Y-173549960D01*
X298450840Y-173951000D02*
X298499100Y-173951000D01*
X301249820Y-173249960D02*
X301249820Y-173951000D01*
X301249820Y-173951000D02*
X301000900Y-173951000D01*
X298450840Y-173951000D02*
X298250180Y-173951000D01*
X298250180Y-173951000D02*
X298250180Y-173249960D01*
X380950840Y-175901000D02*
X380999100Y-175901000D01*
X383749820Y-175199960D02*
X383749820Y-175901000D01*
X383749820Y-175901000D02*
X383500900Y-175901000D01*
X380950840Y-175901000D02*
X380750180Y-175901000D01*
X380750180Y-175901000D02*
X380750180Y-175199960D01*
X95762291Y-66708379D02*
X95714031Y-66708379D01*
X92963311Y-67409419D02*
X92963311Y-66708379D01*
X92963311Y-66708379D02*
X93212231Y-66708379D01*
X95762291Y-66708379D02*
X95962951Y-66708379D01*
X95962951Y-66708379D02*
X95962951Y-67409419D01*
X186749160Y-67749000D02*
X186700900Y-67749000D01*
X183950180Y-68450040D02*
X183950180Y-67749000D01*
X183950180Y-67749000D02*
X184199100Y-67749000D01*
X186749160Y-67749000D02*
X186949820Y-67749000D01*
X186949820Y-67749000D02*
X186949820Y-68450040D01*
X272074160Y-67522980D02*
X272025900Y-67522980D01*
X269275180Y-68224020D02*
X269275180Y-67522980D01*
X269275180Y-67522980D02*
X269524100Y-67522980D01*
X272074160Y-67522980D02*
X272274820Y-67522980D01*
X272274820Y-67522980D02*
X272274820Y-68224020D01*
X230125000Y-75200000D02*
X230125000Y-74000000D01*
X231875000Y-74000000D02*
X231875000Y-75200000D01*
X397490000Y-153081800D02*
X397490000Y-133777800D01*
X402570000Y-153081800D02*
X397490000Y-153081800D01*
X402570000Y-133777800D02*
X402570000Y-153081800D01*
X397490000Y-133777800D02*
X402570000Y-133777800D01*
X58975000Y-74450000D02*
X58975000Y-73450000D01*
X60325000Y-73450000D02*
X60325000Y-74450000D01*
X115625000Y-173750000D02*
X115625000Y-174750000D01*
X114275000Y-174750000D02*
X114275000Y-173750000D01*
X95225000Y-74000000D02*
X95225000Y-75000000D01*
X93875000Y-75000000D02*
X93875000Y-74000000D01*
X184225000Y-74950000D02*
X184225000Y-73950000D01*
X185575000Y-73950000D02*
X185575000Y-74950000D01*
X165925000Y-173300000D02*
X165925000Y-174300000D01*
X164575000Y-174300000D02*
X164575000Y-173300000D01*
X251775000Y-173300000D02*
X251775000Y-174300000D01*
X250425000Y-174300000D02*
X250425000Y-173300000D01*
X336825000Y-173650000D02*
X336825000Y-174650000D01*
X335475000Y-174650000D02*
X335475000Y-173650000D01*
X317425000Y-71950000D02*
X317425000Y-72950000D01*
X316075000Y-72950000D02*
X316075000Y-71950000D01*
X118375000Y-174300000D02*
X118375000Y-173300000D01*
X119725000Y-173300000D02*
X119725000Y-174300000D01*
X204225000Y-173400000D02*
X204225000Y-174400000D01*
X202875000Y-174400000D02*
X202875000Y-173400000D01*
X289775000Y-172850000D02*
X289775000Y-173850000D01*
X288425000Y-173850000D02*
X288425000Y-172850000D01*
X374475000Y-174800000D02*
X374475000Y-175800000D01*
X373125000Y-175800000D02*
X373125000Y-174800000D01*
X270675000Y-72100000D02*
X270675000Y-73100000D01*
X269325000Y-73100000D02*
X269325000Y-72100000D01*
X355325000Y-72400000D02*
X355325000Y-73400000D01*
X353975000Y-73400000D02*
X353975000Y-72400000D01*
X81275000Y-173950000D02*
X81275000Y-172950000D01*
X82625000Y-172950000D02*
X82625000Y-173950000D01*
X168625000Y-174050000D02*
X168625000Y-173050000D01*
X169975000Y-173050000D02*
X169975000Y-174050000D01*
X254875000Y-173250000D02*
X254875000Y-174250000D01*
X253525000Y-174250000D02*
X253525000Y-173250000D01*
X340375000Y-173700000D02*
X340375000Y-174700000D01*
X339025000Y-174700000D02*
X339025000Y-173700000D01*
X65925000Y-67250000D02*
X65925000Y-68250000D01*
X64575000Y-68250000D02*
X64575000Y-67250000D01*
X150725000Y-69350000D02*
X150725000Y-68350000D01*
X152075000Y-68350000D02*
X152075000Y-69350000D01*
X239375000Y-67400000D02*
X239375000Y-68400000D01*
X238025000Y-68400000D02*
X238025000Y-67400000D01*
X325075000Y-67100000D02*
X325075000Y-68100000D01*
X323725000Y-68100000D02*
X323725000Y-67100000D01*
X206975000Y-173400000D02*
X206975000Y-174400000D01*
X205625000Y-174400000D02*
X205625000Y-173400000D01*
X292675000Y-172850000D02*
X292675000Y-173850000D01*
X291325000Y-173850000D02*
X291325000Y-172850000D01*
X376925000Y-174800000D02*
X376925000Y-175800000D01*
X375575000Y-175800000D02*
X375575000Y-174800000D01*
X192925000Y-68050000D02*
X192925000Y-69050000D01*
X191575000Y-69050000D02*
X191575000Y-68050000D01*
X279475000Y-67800000D02*
X279475000Y-68800000D01*
X278125000Y-68800000D02*
X278125000Y-67800000D01*
X363225000Y-67100000D02*
X363225000Y-68100000D01*
X361875000Y-68100000D02*
X361875000Y-67100000D01*
X87025000Y-169800000D02*
X87025000Y-168800000D01*
X88375000Y-168800000D02*
X88375000Y-169800000D01*
X175175000Y-169100000D02*
X175175000Y-170100000D01*
X173825000Y-170100000D02*
X173825000Y-169100000D01*
X262975000Y-169050000D02*
X262975000Y-170050000D01*
X261625000Y-170050000D02*
X261625000Y-169050000D01*
X348175000Y-169500000D02*
X348175000Y-170500000D01*
X346825000Y-170500000D02*
X346825000Y-169500000D01*
X155275000Y-68350000D02*
X155275000Y-69350000D01*
X153925000Y-69350000D02*
X153925000Y-68350000D01*
X242075000Y-67500000D02*
X242075000Y-68500000D01*
X240725000Y-68500000D02*
X240725000Y-67500000D01*
X327225000Y-67250000D02*
X327225000Y-68250000D01*
X325875000Y-68250000D02*
X325875000Y-67250000D01*
X67925000Y-67300000D02*
X67925000Y-68300000D01*
X66575000Y-68300000D02*
X66575000Y-67300000D01*
X124725000Y-170000000D02*
X124725000Y-169000000D01*
X126075000Y-169000000D02*
X126075000Y-170000000D01*
X213575000Y-169100000D02*
X213575000Y-170100000D01*
X212225000Y-170100000D02*
X212225000Y-169100000D01*
X301275000Y-168900000D02*
X301275000Y-169900000D01*
X299925000Y-169900000D02*
X299925000Y-168900000D01*
X383975000Y-169350000D02*
X383975000Y-170350000D01*
X382625000Y-170350000D02*
X382625000Y-169350000D01*
X108675000Y-67750000D02*
X108675000Y-68750000D01*
X107325000Y-68750000D02*
X107325000Y-67750000D01*
X281725000Y-67850000D02*
X281725000Y-68850000D01*
X280375000Y-68850000D02*
X280375000Y-67850000D01*
X365425000Y-67050000D02*
X365425000Y-68050000D01*
X364075000Y-68050000D02*
X364075000Y-67050000D01*
X145975000Y-72350000D02*
X145975000Y-73350000D01*
X144625000Y-73350000D02*
X144625000Y-72350000D01*
X105125000Y-68750000D02*
X105125000Y-67750000D01*
X106475000Y-67750000D02*
X106475000Y-68750000D01*
X195275000Y-68150000D02*
X195275000Y-69150000D01*
X193925000Y-69150000D02*
X193925000Y-68150000D01*
X85704762Y-172147619D02*
X85609524Y-172100000D01*
X85514286Y-172004762D01*
X85371429Y-171861905D01*
X85276190Y-171814286D01*
X85180952Y-171814286D01*
X85228571Y-172052381D02*
X85133333Y-172004762D01*
X85038095Y-171909524D01*
X84990476Y-171719048D01*
X84990476Y-171385714D01*
X85038095Y-171195238D01*
X85133333Y-171100000D01*
X85228571Y-171052381D01*
X85419048Y-171052381D01*
X85514286Y-171100000D01*
X85609524Y-171195238D01*
X85657143Y-171385714D01*
X85657143Y-171719048D01*
X85609524Y-171909524D01*
X85514286Y-172004762D01*
X85419048Y-172052381D01*
X85228571Y-172052381D01*
X86609524Y-172052381D02*
X86038095Y-172052381D01*
X86323809Y-172052381D02*
X86323809Y-171052381D01*
X86228571Y-171195238D01*
X86133333Y-171290476D01*
X86038095Y-171338095D01*
X354478572Y-65497619D02*
X354383334Y-65450000D01*
X354288096Y-65354762D01*
X354145239Y-65211905D01*
X354050000Y-65164286D01*
X353954762Y-65164286D01*
X354002381Y-65402381D02*
X353907143Y-65354762D01*
X353811905Y-65259524D01*
X353764286Y-65069048D01*
X353764286Y-64735714D01*
X353811905Y-64545238D01*
X353907143Y-64450000D01*
X354002381Y-64402381D01*
X354192858Y-64402381D01*
X354288096Y-64450000D01*
X354383334Y-64545238D01*
X354430953Y-64735714D01*
X354430953Y-65069048D01*
X354383334Y-65259524D01*
X354288096Y-65354762D01*
X354192858Y-65402381D01*
X354002381Y-65402381D01*
X355383334Y-65402381D02*
X354811905Y-65402381D01*
X355097619Y-65402381D02*
X355097619Y-64402381D01*
X355002381Y-64545238D01*
X354907143Y-64640476D01*
X354811905Y-64688095D01*
X356240477Y-64402381D02*
X356050000Y-64402381D01*
X355954762Y-64450000D01*
X355907143Y-64497619D01*
X355811905Y-64640476D01*
X355764286Y-64830952D01*
X355764286Y-65211905D01*
X355811905Y-65307143D01*
X355859524Y-65354762D01*
X355954762Y-65402381D01*
X356145239Y-65402381D01*
X356240477Y-65354762D01*
X356288096Y-65307143D01*
X356335715Y-65211905D01*
X356335715Y-64973810D01*
X356288096Y-64878571D01*
X356240477Y-64830952D01*
X356145239Y-64783333D01*
X355954762Y-64783333D01*
X355859524Y-64830952D01*
X355811905Y-64878571D01*
X355764286Y-64973810D01*
X77533334Y-176002381D02*
X77200000Y-175526190D01*
X76961905Y-176002381D02*
X76961905Y-175002381D01*
X77342858Y-175002381D01*
X77438096Y-175050000D01*
X77485715Y-175097619D01*
X77533334Y-175192857D01*
X77533334Y-175335714D01*
X77485715Y-175430952D01*
X77438096Y-175478571D01*
X77342858Y-175526190D01*
X76961905Y-175526190D01*
X78009524Y-176002381D02*
X78200000Y-176002381D01*
X78295239Y-175954762D01*
X78342858Y-175907143D01*
X78438096Y-175764286D01*
X78485715Y-175573810D01*
X78485715Y-175192857D01*
X78438096Y-175097619D01*
X78390477Y-175050000D01*
X78295239Y-175002381D01*
X78104762Y-175002381D01*
X78009524Y-175050000D01*
X77961905Y-175097619D01*
X77914286Y-175192857D01*
X77914286Y-175430952D01*
X77961905Y-175526190D01*
X78009524Y-175573810D01*
X78104762Y-175621429D01*
X78295239Y-175621429D01*
X78390477Y-175573810D01*
X78438096Y-175526190D01*
X78485715Y-175430952D01*
X287685714Y-165452381D02*
X287685714Y-164452381D01*
X287923809Y-164452381D01*
X288066667Y-164500000D01*
X288161905Y-164595238D01*
X288209524Y-164690476D01*
X288257143Y-164880952D01*
X288257143Y-165023810D01*
X288209524Y-165214286D01*
X288161905Y-165309524D01*
X288066667Y-165404762D01*
X287923809Y-165452381D01*
X287685714Y-165452381D01*
X288638095Y-164547619D02*
X288685714Y-164500000D01*
X288780952Y-164452381D01*
X289019048Y-164452381D01*
X289114286Y-164500000D01*
X289161905Y-164547619D01*
X289209524Y-164642857D01*
X289209524Y-164738095D01*
X289161905Y-164880952D01*
X288590476Y-165452381D01*
X289209524Y-165452381D01*
X289542857Y-164452381D02*
X290161905Y-164452381D01*
X289828571Y-164833333D01*
X289971429Y-164833333D01*
X290066667Y-164880952D01*
X290114286Y-164928571D01*
X290161905Y-165023810D01*
X290161905Y-165261905D01*
X290114286Y-165357143D01*
X290066667Y-165404762D01*
X289971429Y-165452381D01*
X289685714Y-165452381D01*
X289590476Y-165404762D01*
X289542857Y-165357143D01*
X134072381Y-85851905D02*
X134881905Y-85851905D01*
X134977143Y-85804286D01*
X135024762Y-85756667D01*
X135072381Y-85661429D01*
X135072381Y-85470952D01*
X135024762Y-85375714D01*
X134977143Y-85328095D01*
X134881905Y-85280476D01*
X134072381Y-85280476D01*
X135072381Y-84280476D02*
X135072381Y-84851905D01*
X135072381Y-84566191D02*
X134072381Y-84566191D01*
X134215238Y-84661429D01*
X134310476Y-84756667D01*
X134358095Y-84851905D01*
X126004762Y-175997619D02*
X125909524Y-175950000D01*
X125814286Y-175854762D01*
X125671429Y-175711905D01*
X125576190Y-175664286D01*
X125480952Y-175664286D01*
X125528571Y-175902381D02*
X125433333Y-175854762D01*
X125338095Y-175759524D01*
X125290476Y-175569048D01*
X125290476Y-175235714D01*
X125338095Y-175045238D01*
X125433333Y-174950000D01*
X125528571Y-174902381D01*
X125719048Y-174902381D01*
X125814286Y-174950000D01*
X125909524Y-175045238D01*
X125957143Y-175235714D01*
X125957143Y-175569048D01*
X125909524Y-175759524D01*
X125814286Y-175854762D01*
X125719048Y-175902381D01*
X125528571Y-175902381D01*
X126433333Y-175902381D02*
X126623809Y-175902381D01*
X126719048Y-175854762D01*
X126766667Y-175807143D01*
X126861905Y-175664286D01*
X126909524Y-175473810D01*
X126909524Y-175092857D01*
X126861905Y-174997619D01*
X126814286Y-174950000D01*
X126719048Y-174902381D01*
X126528571Y-174902381D01*
X126433333Y-174950000D01*
X126385714Y-174997619D01*
X126338095Y-175092857D01*
X126338095Y-175330952D01*
X126385714Y-175426190D01*
X126433333Y-175473810D01*
X126528571Y-175521429D01*
X126719048Y-175521429D01*
X126814286Y-175473810D01*
X126861905Y-175426190D01*
X126909524Y-175330952D01*
X83511905Y-165852381D02*
X83511905Y-164852381D01*
X83750000Y-164852381D01*
X83892858Y-164900000D01*
X83988096Y-164995238D01*
X84035715Y-165090476D01*
X84083334Y-165280952D01*
X84083334Y-165423810D01*
X84035715Y-165614286D01*
X83988096Y-165709524D01*
X83892858Y-165804762D01*
X83750000Y-165852381D01*
X83511905Y-165852381D01*
X85035715Y-165852381D02*
X84464286Y-165852381D01*
X84750000Y-165852381D02*
X84750000Y-164852381D01*
X84654762Y-164995238D01*
X84559524Y-165090476D01*
X84464286Y-165138095D01*
X221702381Y-86105905D02*
X222511905Y-86105905D01*
X222607143Y-86058286D01*
X222654762Y-86010667D01*
X222702381Y-85915429D01*
X222702381Y-85724952D01*
X222654762Y-85629714D01*
X222607143Y-85582095D01*
X222511905Y-85534476D01*
X221702381Y-85534476D01*
X221797619Y-85105905D02*
X221750000Y-85058286D01*
X221702381Y-84963048D01*
X221702381Y-84724952D01*
X221750000Y-84629714D01*
X221797619Y-84582095D01*
X221892857Y-84534476D01*
X221988095Y-84534476D01*
X222130952Y-84582095D01*
X222702381Y-85153524D01*
X222702381Y-84534476D01*
X392898381Y-86105905D02*
X393707905Y-86105905D01*
X393803143Y-86058286D01*
X393850762Y-86010667D01*
X393898381Y-85915429D01*
X393898381Y-85724952D01*
X393850762Y-85629714D01*
X393803143Y-85582095D01*
X393707905Y-85534476D01*
X392898381Y-85534476D01*
X393231714Y-84629714D02*
X393898381Y-84629714D01*
X392850762Y-84867810D02*
X393565048Y-85105905D01*
X393565048Y-84486857D01*
X308316381Y-86105905D02*
X309125905Y-86105905D01*
X309221143Y-86058286D01*
X309268762Y-86010667D01*
X309316381Y-85915429D01*
X309316381Y-85724952D01*
X309268762Y-85629714D01*
X309221143Y-85582095D01*
X309125905Y-85534476D01*
X308316381Y-85534476D01*
X308316381Y-85153524D02*
X308316381Y-84534476D01*
X308697333Y-84867810D01*
X308697333Y-84724952D01*
X308744952Y-84629714D01*
X308792571Y-84582095D01*
X308887810Y-84534476D01*
X309125905Y-84534476D01*
X309221143Y-84582095D01*
X309268762Y-84629714D01*
X309316381Y-84724952D01*
X309316381Y-85010667D01*
X309268762Y-85105905D01*
X309221143Y-85153524D01*
X396438381Y-129262095D02*
X395438381Y-129262095D01*
X395438381Y-128881142D01*
X395486000Y-128785904D01*
X395533619Y-128738285D01*
X395628857Y-128690666D01*
X395771714Y-128690666D01*
X395866952Y-128738285D01*
X395914571Y-128785904D01*
X395962190Y-128881142D01*
X395962190Y-129262095D01*
X396438381Y-127738285D02*
X396438381Y-128309714D01*
X396438381Y-128024000D02*
X395438381Y-128024000D01*
X395581238Y-128119238D01*
X395676476Y-128214476D01*
X395724095Y-128309714D01*
X170611905Y-165802381D02*
X170611905Y-164802381D01*
X170850000Y-164802381D01*
X170992858Y-164850000D01*
X171088096Y-164945238D01*
X171135715Y-165040476D01*
X171183334Y-165230952D01*
X171183334Y-165373810D01*
X171135715Y-165564286D01*
X171088096Y-165659524D01*
X170992858Y-165754762D01*
X170850000Y-165802381D01*
X170611905Y-165802381D01*
X171564286Y-164897619D02*
X171611905Y-164850000D01*
X171707143Y-164802381D01*
X171945239Y-164802381D01*
X172040477Y-164850000D01*
X172088096Y-164897619D01*
X172135715Y-164992857D01*
X172135715Y-165088095D01*
X172088096Y-165230952D01*
X171516667Y-165802381D01*
X172135715Y-165802381D01*
X257111905Y-165602381D02*
X257111905Y-164602381D01*
X257350000Y-164602381D01*
X257492858Y-164650000D01*
X257588096Y-164745238D01*
X257635715Y-164840476D01*
X257683334Y-165030952D01*
X257683334Y-165173810D01*
X257635715Y-165364286D01*
X257588096Y-165459524D01*
X257492858Y-165554762D01*
X257350000Y-165602381D01*
X257111905Y-165602381D01*
X258016667Y-164602381D02*
X258635715Y-164602381D01*
X258302381Y-164983333D01*
X258445239Y-164983333D01*
X258540477Y-165030952D01*
X258588096Y-165078571D01*
X258635715Y-165173810D01*
X258635715Y-165411905D01*
X258588096Y-165507143D01*
X258540477Y-165554762D01*
X258445239Y-165602381D01*
X258159524Y-165602381D01*
X258064286Y-165554762D01*
X258016667Y-165507143D01*
X341911905Y-165602381D02*
X341911905Y-164602381D01*
X342150000Y-164602381D01*
X342292858Y-164650000D01*
X342388096Y-164745238D01*
X342435715Y-164840476D01*
X342483334Y-165030952D01*
X342483334Y-165173810D01*
X342435715Y-165364286D01*
X342388096Y-165459524D01*
X342292858Y-165554762D01*
X342150000Y-165602381D01*
X341911905Y-165602381D01*
X343340477Y-164935714D02*
X343340477Y-165602381D01*
X343102381Y-164554762D02*
X342864286Y-165269048D01*
X343483334Y-165269048D01*
X78411905Y-165852381D02*
X78411905Y-164852381D01*
X78650000Y-164852381D01*
X78792858Y-164900000D01*
X78888096Y-164995238D01*
X78935715Y-165090476D01*
X78983334Y-165280952D01*
X78983334Y-165423810D01*
X78935715Y-165614286D01*
X78888096Y-165709524D01*
X78792858Y-165804762D01*
X78650000Y-165852381D01*
X78411905Y-165852381D01*
X79888096Y-164852381D02*
X79411905Y-164852381D01*
X79364286Y-165328571D01*
X79411905Y-165280952D01*
X79507143Y-165233333D01*
X79745239Y-165233333D01*
X79840477Y-165280952D01*
X79888096Y-165328571D01*
X79935715Y-165423810D01*
X79935715Y-165661905D01*
X79888096Y-165757143D01*
X79840477Y-165804762D01*
X79745239Y-165852381D01*
X79507143Y-165852381D01*
X79411905Y-165804762D01*
X79364286Y-165757143D01*
X164261905Y-165652381D02*
X164261905Y-164652381D01*
X164500000Y-164652381D01*
X164642858Y-164700000D01*
X164738096Y-164795238D01*
X164785715Y-164890476D01*
X164833334Y-165080952D01*
X164833334Y-165223810D01*
X164785715Y-165414286D01*
X164738096Y-165509524D01*
X164642858Y-165604762D01*
X164500000Y-165652381D01*
X164261905Y-165652381D01*
X165690477Y-164652381D02*
X165500000Y-164652381D01*
X165404762Y-164700000D01*
X165357143Y-164747619D01*
X165261905Y-164890476D01*
X165214286Y-165080952D01*
X165214286Y-165461905D01*
X165261905Y-165557143D01*
X165309524Y-165604762D01*
X165404762Y-165652381D01*
X165595239Y-165652381D01*
X165690477Y-165604762D01*
X165738096Y-165557143D01*
X165785715Y-165461905D01*
X165785715Y-165223810D01*
X165738096Y-165128571D01*
X165690477Y-165080952D01*
X165595239Y-165033333D01*
X165404762Y-165033333D01*
X165309524Y-165080952D01*
X165261905Y-165128571D01*
X165214286Y-165223810D01*
X250011905Y-166002381D02*
X250011905Y-165002381D01*
X250250000Y-165002381D01*
X250392858Y-165050000D01*
X250488096Y-165145238D01*
X250535715Y-165240476D01*
X250583334Y-165430952D01*
X250583334Y-165573810D01*
X250535715Y-165764286D01*
X250488096Y-165859524D01*
X250392858Y-165954762D01*
X250250000Y-166002381D01*
X250011905Y-166002381D01*
X250916667Y-165002381D02*
X251583334Y-165002381D01*
X251154762Y-166002381D01*
X335111905Y-165552381D02*
X335111905Y-164552381D01*
X335350000Y-164552381D01*
X335492858Y-164600000D01*
X335588096Y-164695238D01*
X335635715Y-164790476D01*
X335683334Y-164980952D01*
X335683334Y-165123810D01*
X335635715Y-165314286D01*
X335588096Y-165409524D01*
X335492858Y-165504762D01*
X335350000Y-165552381D01*
X335111905Y-165552381D01*
X336254762Y-164980952D02*
X336159524Y-164933333D01*
X336111905Y-164885714D01*
X336064286Y-164790476D01*
X336064286Y-164742857D01*
X336111905Y-164647619D01*
X336159524Y-164600000D01*
X336254762Y-164552381D01*
X336445239Y-164552381D01*
X336540477Y-164600000D01*
X336588096Y-164647619D01*
X336635715Y-164742857D01*
X336635715Y-164790476D01*
X336588096Y-164885714D01*
X336540477Y-164933333D01*
X336445239Y-164980952D01*
X336254762Y-164980952D01*
X336159524Y-165028571D01*
X336111905Y-165076190D01*
X336064286Y-165171429D01*
X336064286Y-165361905D01*
X336111905Y-165457143D01*
X336159524Y-165504762D01*
X336254762Y-165552381D01*
X336445239Y-165552381D01*
X336540477Y-165504762D01*
X336588096Y-165457143D01*
X336635715Y-165361905D01*
X336635715Y-165171429D01*
X336588096Y-165076190D01*
X336540477Y-165028571D01*
X336445239Y-164980952D01*
X67711905Y-76602381D02*
X67711905Y-75602381D01*
X67950000Y-75602381D01*
X68092858Y-75650000D01*
X68188096Y-75745238D01*
X68235715Y-75840476D01*
X68283334Y-76030952D01*
X68283334Y-76173810D01*
X68235715Y-76364286D01*
X68188096Y-76459524D01*
X68092858Y-76554762D01*
X67950000Y-76602381D01*
X67711905Y-76602381D01*
X68759524Y-76602381D02*
X68950000Y-76602381D01*
X69045239Y-76554762D01*
X69092858Y-76507143D01*
X69188096Y-76364286D01*
X69235715Y-76173810D01*
X69235715Y-75792857D01*
X69188096Y-75697619D01*
X69140477Y-75650000D01*
X69045239Y-75602381D01*
X68854762Y-75602381D01*
X68759524Y-75650000D01*
X68711905Y-75697619D01*
X68664286Y-75792857D01*
X68664286Y-76030952D01*
X68711905Y-76126190D01*
X68759524Y-76173810D01*
X68854762Y-76221429D01*
X69045239Y-76221429D01*
X69140477Y-76173810D01*
X69188096Y-76126190D01*
X69235715Y-76030952D01*
X154735714Y-76852381D02*
X154735714Y-75852381D01*
X154973809Y-75852381D01*
X155116667Y-75900000D01*
X155211905Y-75995238D01*
X155259524Y-76090476D01*
X155307143Y-76280952D01*
X155307143Y-76423810D01*
X155259524Y-76614286D01*
X155211905Y-76709524D01*
X155116667Y-76804762D01*
X154973809Y-76852381D01*
X154735714Y-76852381D01*
X156259524Y-76852381D02*
X155688095Y-76852381D01*
X155973809Y-76852381D02*
X155973809Y-75852381D01*
X155878571Y-75995238D01*
X155783333Y-76090476D01*
X155688095Y-76138095D01*
X156878571Y-75852381D02*
X156973810Y-75852381D01*
X157069048Y-75900000D01*
X157116667Y-75947619D01*
X157164286Y-76042857D01*
X157211905Y-76233333D01*
X157211905Y-76471429D01*
X157164286Y-76661905D01*
X157116667Y-76757143D01*
X157069048Y-76804762D01*
X156973810Y-76852381D01*
X156878571Y-76852381D01*
X156783333Y-76804762D01*
X156735714Y-76757143D01*
X156688095Y-76661905D01*
X156640476Y-76471429D01*
X156640476Y-76233333D01*
X156688095Y-76042857D01*
X156735714Y-75947619D01*
X156783333Y-75900000D01*
X156878571Y-75852381D01*
X240585714Y-72502381D02*
X240585714Y-71502381D01*
X240823809Y-71502381D01*
X240966667Y-71550000D01*
X241061905Y-71645238D01*
X241109524Y-71740476D01*
X241157143Y-71930952D01*
X241157143Y-72073810D01*
X241109524Y-72264286D01*
X241061905Y-72359524D01*
X240966667Y-72454762D01*
X240823809Y-72502381D01*
X240585714Y-72502381D01*
X242109524Y-72502381D02*
X241538095Y-72502381D01*
X241823809Y-72502381D02*
X241823809Y-71502381D01*
X241728571Y-71645238D01*
X241633333Y-71740476D01*
X241538095Y-71788095D01*
X243061905Y-72502381D02*
X242490476Y-72502381D01*
X242776190Y-72502381D02*
X242776190Y-71502381D01*
X242680952Y-71645238D01*
X242585714Y-71740476D01*
X242490476Y-71788095D01*
X325635714Y-77252381D02*
X325635714Y-76252381D01*
X325873809Y-76252381D01*
X326016667Y-76300000D01*
X326111905Y-76395238D01*
X326159524Y-76490476D01*
X326207143Y-76680952D01*
X326207143Y-76823810D01*
X326159524Y-77014286D01*
X326111905Y-77109524D01*
X326016667Y-77204762D01*
X325873809Y-77252381D01*
X325635714Y-77252381D01*
X327159524Y-77252381D02*
X326588095Y-77252381D01*
X326873809Y-77252381D02*
X326873809Y-76252381D01*
X326778571Y-76395238D01*
X326683333Y-76490476D01*
X326588095Y-76538095D01*
X327540476Y-76347619D02*
X327588095Y-76300000D01*
X327683333Y-76252381D01*
X327921429Y-76252381D01*
X328016667Y-76300000D01*
X328064286Y-76347619D01*
X328111905Y-76442857D01*
X328111905Y-76538095D01*
X328064286Y-76680952D01*
X327492857Y-77252381D01*
X328111905Y-77252381D01*
X61935714Y-71702381D02*
X61935714Y-70702381D01*
X62173809Y-70702381D01*
X62316667Y-70750000D01*
X62411905Y-70845238D01*
X62459524Y-70940476D01*
X62507143Y-71130952D01*
X62507143Y-71273810D01*
X62459524Y-71464286D01*
X62411905Y-71559524D01*
X62316667Y-71654762D01*
X62173809Y-71702381D01*
X61935714Y-71702381D01*
X63459524Y-71702381D02*
X62888095Y-71702381D01*
X63173809Y-71702381D02*
X63173809Y-70702381D01*
X63078571Y-70845238D01*
X62983333Y-70940476D01*
X62888095Y-70988095D01*
X63792857Y-70702381D02*
X64411905Y-70702381D01*
X64078571Y-71083333D01*
X64221429Y-71083333D01*
X64316667Y-71130952D01*
X64364286Y-71178571D01*
X64411905Y-71273810D01*
X64411905Y-71511905D01*
X64364286Y-71607143D01*
X64316667Y-71654762D01*
X64221429Y-71702381D01*
X63935714Y-71702381D01*
X63840476Y-71654762D01*
X63792857Y-71607143D01*
X147185714Y-76002381D02*
X147185714Y-75002381D01*
X147423809Y-75002381D01*
X147566667Y-75050000D01*
X147661905Y-75145238D01*
X147709524Y-75240476D01*
X147757143Y-75430952D01*
X147757143Y-75573810D01*
X147709524Y-75764286D01*
X147661905Y-75859524D01*
X147566667Y-75954762D01*
X147423809Y-76002381D01*
X147185714Y-76002381D01*
X148709524Y-76002381D02*
X148138095Y-76002381D01*
X148423809Y-76002381D02*
X148423809Y-75002381D01*
X148328571Y-75145238D01*
X148233333Y-75240476D01*
X148138095Y-75288095D01*
X149566667Y-75335714D02*
X149566667Y-76002381D01*
X149328571Y-74954762D02*
X149090476Y-75669048D01*
X149709524Y-75669048D01*
X235735714Y-72102381D02*
X235735714Y-71102381D01*
X235973809Y-71102381D01*
X236116667Y-71150000D01*
X236211905Y-71245238D01*
X236259524Y-71340476D01*
X236307143Y-71530952D01*
X236307143Y-71673810D01*
X236259524Y-71864286D01*
X236211905Y-71959524D01*
X236116667Y-72054762D01*
X235973809Y-72102381D01*
X235735714Y-72102381D01*
X237259524Y-72102381D02*
X236688095Y-72102381D01*
X236973809Y-72102381D02*
X236973809Y-71102381D01*
X236878571Y-71245238D01*
X236783333Y-71340476D01*
X236688095Y-71388095D01*
X238164286Y-71102381D02*
X237688095Y-71102381D01*
X237640476Y-71578571D01*
X237688095Y-71530952D01*
X237783333Y-71483333D01*
X238021429Y-71483333D01*
X238116667Y-71530952D01*
X238164286Y-71578571D01*
X238211905Y-71673810D01*
X238211905Y-71911905D01*
X238164286Y-72007143D01*
X238116667Y-72054762D01*
X238021429Y-72102381D01*
X237783333Y-72102381D01*
X237688095Y-72054762D01*
X237640476Y-72007143D01*
X318685714Y-75752381D02*
X318685714Y-74752381D01*
X318923809Y-74752381D01*
X319066667Y-74800000D01*
X319161905Y-74895238D01*
X319209524Y-74990476D01*
X319257143Y-75180952D01*
X319257143Y-75323810D01*
X319209524Y-75514286D01*
X319161905Y-75609524D01*
X319066667Y-75704762D01*
X318923809Y-75752381D01*
X318685714Y-75752381D01*
X320209524Y-75752381D02*
X319638095Y-75752381D01*
X319923809Y-75752381D02*
X319923809Y-74752381D01*
X319828571Y-74895238D01*
X319733333Y-74990476D01*
X319638095Y-75038095D01*
X321066667Y-74752381D02*
X320876190Y-74752381D01*
X320780952Y-74800000D01*
X320733333Y-74847619D01*
X320638095Y-74990476D01*
X320590476Y-75180952D01*
X320590476Y-75561905D01*
X320638095Y-75657143D01*
X320685714Y-75704762D01*
X320780952Y-75752381D01*
X320971429Y-75752381D01*
X321066667Y-75704762D01*
X321114286Y-75657143D01*
X321161905Y-75561905D01*
X321161905Y-75323810D01*
X321114286Y-75228571D01*
X321066667Y-75180952D01*
X320971429Y-75133333D01*
X320780952Y-75133333D01*
X320685714Y-75180952D01*
X320638095Y-75228571D01*
X320590476Y-75323810D01*
X119385714Y-170652381D02*
X119385714Y-169652381D01*
X119623809Y-169652381D01*
X119766667Y-169700000D01*
X119861905Y-169795238D01*
X119909524Y-169890476D01*
X119957143Y-170080952D01*
X119957143Y-170223810D01*
X119909524Y-170414286D01*
X119861905Y-170509524D01*
X119766667Y-170604762D01*
X119623809Y-170652381D01*
X119385714Y-170652381D01*
X120909524Y-170652381D02*
X120338095Y-170652381D01*
X120623809Y-170652381D02*
X120623809Y-169652381D01*
X120528571Y-169795238D01*
X120433333Y-169890476D01*
X120338095Y-169938095D01*
X121242857Y-169652381D02*
X121909524Y-169652381D01*
X121480952Y-170652381D01*
X208885714Y-165802381D02*
X208885714Y-164802381D01*
X209123809Y-164802381D01*
X209266667Y-164850000D01*
X209361905Y-164945238D01*
X209409524Y-165040476D01*
X209457143Y-165230952D01*
X209457143Y-165373810D01*
X209409524Y-165564286D01*
X209361905Y-165659524D01*
X209266667Y-165754762D01*
X209123809Y-165802381D01*
X208885714Y-165802381D01*
X210409524Y-165802381D02*
X209838095Y-165802381D01*
X210123809Y-165802381D02*
X210123809Y-164802381D01*
X210028571Y-164945238D01*
X209933333Y-165040476D01*
X209838095Y-165088095D01*
X210980952Y-165230952D02*
X210885714Y-165183333D01*
X210838095Y-165135714D01*
X210790476Y-165040476D01*
X210790476Y-164992857D01*
X210838095Y-164897619D01*
X210885714Y-164850000D01*
X210980952Y-164802381D01*
X211171429Y-164802381D01*
X211266667Y-164850000D01*
X211314286Y-164897619D01*
X211361905Y-164992857D01*
X211361905Y-165040476D01*
X211314286Y-165135714D01*
X211266667Y-165183333D01*
X211171429Y-165230952D01*
X210980952Y-165230952D01*
X210885714Y-165278571D01*
X210838095Y-165326190D01*
X210790476Y-165421429D01*
X210790476Y-165611905D01*
X210838095Y-165707143D01*
X210885714Y-165754762D01*
X210980952Y-165802381D01*
X211171429Y-165802381D01*
X211266667Y-165754762D01*
X211314286Y-165707143D01*
X211361905Y-165611905D01*
X211361905Y-165421429D01*
X211314286Y-165326190D01*
X211266667Y-165278571D01*
X211171429Y-165230952D01*
X295685714Y-165352381D02*
X295685714Y-164352381D01*
X295923809Y-164352381D01*
X296066667Y-164400000D01*
X296161905Y-164495238D01*
X296209524Y-164590476D01*
X296257143Y-164780952D01*
X296257143Y-164923810D01*
X296209524Y-165114286D01*
X296161905Y-165209524D01*
X296066667Y-165304762D01*
X295923809Y-165352381D01*
X295685714Y-165352381D01*
X297209524Y-165352381D02*
X296638095Y-165352381D01*
X296923809Y-165352381D02*
X296923809Y-164352381D01*
X296828571Y-164495238D01*
X296733333Y-164590476D01*
X296638095Y-164638095D01*
X297685714Y-165352381D02*
X297876190Y-165352381D01*
X297971429Y-165304762D01*
X298019048Y-165257143D01*
X298114286Y-165114286D01*
X298161905Y-164923810D01*
X298161905Y-164542857D01*
X298114286Y-164447619D01*
X298066667Y-164400000D01*
X297971429Y-164352381D01*
X297780952Y-164352381D01*
X297685714Y-164400000D01*
X297638095Y-164447619D01*
X297590476Y-164542857D01*
X297590476Y-164780952D01*
X297638095Y-164876190D01*
X297685714Y-164923810D01*
X297780952Y-164971429D01*
X297971429Y-164971429D01*
X298066667Y-164923810D01*
X298114286Y-164876190D01*
X298161905Y-164780952D01*
X379235714Y-165852381D02*
X379235714Y-164852381D01*
X379473809Y-164852381D01*
X379616667Y-164900000D01*
X379711905Y-164995238D01*
X379759524Y-165090476D01*
X379807143Y-165280952D01*
X379807143Y-165423810D01*
X379759524Y-165614286D01*
X379711905Y-165709524D01*
X379616667Y-165804762D01*
X379473809Y-165852381D01*
X379235714Y-165852381D01*
X380188095Y-164947619D02*
X380235714Y-164900000D01*
X380330952Y-164852381D01*
X380569048Y-164852381D01*
X380664286Y-164900000D01*
X380711905Y-164947619D01*
X380759524Y-165042857D01*
X380759524Y-165138095D01*
X380711905Y-165280952D01*
X380140476Y-165852381D01*
X380759524Y-165852381D01*
X381378571Y-164852381D02*
X381473810Y-164852381D01*
X381569048Y-164900000D01*
X381616667Y-164947619D01*
X381664286Y-165042857D01*
X381711905Y-165233333D01*
X381711905Y-165471429D01*
X381664286Y-165661905D01*
X381616667Y-165757143D01*
X381569048Y-165804762D01*
X381473810Y-165852381D01*
X381378571Y-165852381D01*
X381283333Y-165804762D01*
X381235714Y-165757143D01*
X381188095Y-165661905D01*
X381140476Y-165471429D01*
X381140476Y-165233333D01*
X381188095Y-165042857D01*
X381235714Y-164947619D01*
X381283333Y-164900000D01*
X381378571Y-164852381D01*
X114385714Y-165502381D02*
X114385714Y-164502381D01*
X114623809Y-164502381D01*
X114766667Y-164550000D01*
X114861905Y-164645238D01*
X114909524Y-164740476D01*
X114957143Y-164930952D01*
X114957143Y-165073810D01*
X114909524Y-165264286D01*
X114861905Y-165359524D01*
X114766667Y-165454762D01*
X114623809Y-165502381D01*
X114385714Y-165502381D01*
X115338095Y-164597619D02*
X115385714Y-164550000D01*
X115480952Y-164502381D01*
X115719048Y-164502381D01*
X115814286Y-164550000D01*
X115861905Y-164597619D01*
X115909524Y-164692857D01*
X115909524Y-164788095D01*
X115861905Y-164930952D01*
X115290476Y-165502381D01*
X115909524Y-165502381D01*
X116861905Y-165502381D02*
X116290476Y-165502381D01*
X116576190Y-165502381D02*
X116576190Y-164502381D01*
X116480952Y-164645238D01*
X116385714Y-164740476D01*
X116290476Y-164788095D01*
X202435714Y-165802381D02*
X202435714Y-164802381D01*
X202673809Y-164802381D01*
X202816667Y-164850000D01*
X202911905Y-164945238D01*
X202959524Y-165040476D01*
X203007143Y-165230952D01*
X203007143Y-165373810D01*
X202959524Y-165564286D01*
X202911905Y-165659524D01*
X202816667Y-165754762D01*
X202673809Y-165802381D01*
X202435714Y-165802381D01*
X203388095Y-164897619D02*
X203435714Y-164850000D01*
X203530952Y-164802381D01*
X203769048Y-164802381D01*
X203864286Y-164850000D01*
X203911905Y-164897619D01*
X203959524Y-164992857D01*
X203959524Y-165088095D01*
X203911905Y-165230952D01*
X203340476Y-165802381D01*
X203959524Y-165802381D01*
X204340476Y-164897619D02*
X204388095Y-164850000D01*
X204483333Y-164802381D01*
X204721429Y-164802381D01*
X204816667Y-164850000D01*
X204864286Y-164897619D01*
X204911905Y-164992857D01*
X204911905Y-165088095D01*
X204864286Y-165230952D01*
X204292857Y-165802381D01*
X204911905Y-165802381D01*
X371935714Y-165702381D02*
X371935714Y-164702381D01*
X372173809Y-164702381D01*
X372316667Y-164750000D01*
X372411905Y-164845238D01*
X372459524Y-164940476D01*
X372507143Y-165130952D01*
X372507143Y-165273810D01*
X372459524Y-165464286D01*
X372411905Y-165559524D01*
X372316667Y-165654762D01*
X372173809Y-165702381D01*
X371935714Y-165702381D01*
X372888095Y-164797619D02*
X372935714Y-164750000D01*
X373030952Y-164702381D01*
X373269048Y-164702381D01*
X373364286Y-164750000D01*
X373411905Y-164797619D01*
X373459524Y-164892857D01*
X373459524Y-164988095D01*
X373411905Y-165130952D01*
X372840476Y-165702381D01*
X373459524Y-165702381D01*
X374316667Y-165035714D02*
X374316667Y-165702381D01*
X374078571Y-164654762D02*
X373840476Y-165369048D01*
X374459524Y-165369048D01*
X106048845Y-71761000D02*
X106048845Y-70761000D01*
X106286940Y-70761000D01*
X106429798Y-70808619D01*
X106525036Y-70903857D01*
X106572655Y-70999095D01*
X106620274Y-71189571D01*
X106620274Y-71332429D01*
X106572655Y-71522905D01*
X106525036Y-71618143D01*
X106429798Y-71713381D01*
X106286940Y-71761000D01*
X106048845Y-71761000D01*
X107001226Y-70856238D02*
X107048845Y-70808619D01*
X107144083Y-70761000D01*
X107382179Y-70761000D01*
X107477417Y-70808619D01*
X107525036Y-70856238D01*
X107572655Y-70951476D01*
X107572655Y-71046714D01*
X107525036Y-71189571D01*
X106953607Y-71761000D01*
X107572655Y-71761000D01*
X108477417Y-70761000D02*
X108001226Y-70761000D01*
X107953607Y-71237190D01*
X108001226Y-71189571D01*
X108096464Y-71141952D01*
X108334560Y-71141952D01*
X108429798Y-71189571D01*
X108477417Y-71237190D01*
X108525036Y-71332429D01*
X108525036Y-71570524D01*
X108477417Y-71665762D01*
X108429798Y-71713381D01*
X108334560Y-71761000D01*
X108096464Y-71761000D01*
X108001226Y-71713381D01*
X107953607Y-71665762D01*
X193335714Y-77152381D02*
X193335714Y-76152381D01*
X193573809Y-76152381D01*
X193716667Y-76200000D01*
X193811905Y-76295238D01*
X193859524Y-76390476D01*
X193907143Y-76580952D01*
X193907143Y-76723810D01*
X193859524Y-76914286D01*
X193811905Y-77009524D01*
X193716667Y-77104762D01*
X193573809Y-77152381D01*
X193335714Y-77152381D01*
X194288095Y-76247619D02*
X194335714Y-76200000D01*
X194430952Y-76152381D01*
X194669048Y-76152381D01*
X194764286Y-76200000D01*
X194811905Y-76247619D01*
X194859524Y-76342857D01*
X194859524Y-76438095D01*
X194811905Y-76580952D01*
X194240476Y-77152381D01*
X194859524Y-77152381D01*
X195716667Y-76152381D02*
X195526190Y-76152381D01*
X195430952Y-76200000D01*
X195383333Y-76247619D01*
X195288095Y-76390476D01*
X195240476Y-76580952D01*
X195240476Y-76961905D01*
X195288095Y-77057143D01*
X195335714Y-77104762D01*
X195430952Y-77152381D01*
X195621429Y-77152381D01*
X195716667Y-77104762D01*
X195764286Y-77057143D01*
X195811905Y-76961905D01*
X195811905Y-76723810D01*
X195764286Y-76628571D01*
X195716667Y-76580952D01*
X195621429Y-76533333D01*
X195430952Y-76533333D01*
X195335714Y-76580952D01*
X195288095Y-76628571D01*
X195240476Y-76723810D01*
X279710714Y-72625601D02*
X279710714Y-71625601D01*
X279948809Y-71625601D01*
X280091667Y-71673220D01*
X280186905Y-71768458D01*
X280234524Y-71863696D01*
X280282143Y-72054172D01*
X280282143Y-72197030D01*
X280234524Y-72387506D01*
X280186905Y-72482744D01*
X280091667Y-72577982D01*
X279948809Y-72625601D01*
X279710714Y-72625601D01*
X280663095Y-71720839D02*
X280710714Y-71673220D01*
X280805952Y-71625601D01*
X281044048Y-71625601D01*
X281139286Y-71673220D01*
X281186905Y-71720839D01*
X281234524Y-71816077D01*
X281234524Y-71911315D01*
X281186905Y-72054172D01*
X280615476Y-72625601D01*
X281234524Y-72625601D01*
X281567857Y-71625601D02*
X282234524Y-71625601D01*
X281805952Y-72625601D01*
X363285714Y-72552381D02*
X363285714Y-71552381D01*
X363523809Y-71552381D01*
X363666667Y-71600000D01*
X363761905Y-71695238D01*
X363809524Y-71790476D01*
X363857143Y-71980952D01*
X363857143Y-72123810D01*
X363809524Y-72314286D01*
X363761905Y-72409524D01*
X363666667Y-72504762D01*
X363523809Y-72552381D01*
X363285714Y-72552381D01*
X364238095Y-71647619D02*
X364285714Y-71600000D01*
X364380952Y-71552381D01*
X364619048Y-71552381D01*
X364714286Y-71600000D01*
X364761905Y-71647619D01*
X364809524Y-71742857D01*
X364809524Y-71838095D01*
X364761905Y-71980952D01*
X364190476Y-72552381D01*
X364809524Y-72552381D01*
X365380952Y-71980952D02*
X365285714Y-71933333D01*
X365238095Y-71885714D01*
X365190476Y-71790476D01*
X365190476Y-71742857D01*
X365238095Y-71647619D01*
X365285714Y-71600000D01*
X365380952Y-71552381D01*
X365571429Y-71552381D01*
X365666667Y-71600000D01*
X365714286Y-71647619D01*
X365761905Y-71742857D01*
X365761905Y-71790476D01*
X365714286Y-71885714D01*
X365666667Y-71933333D01*
X365571429Y-71980952D01*
X365380952Y-71980952D01*
X365285714Y-72028571D01*
X365238095Y-72076190D01*
X365190476Y-72171429D01*
X365190476Y-72361905D01*
X365238095Y-72457143D01*
X365285714Y-72504762D01*
X365380952Y-72552381D01*
X365571429Y-72552381D01*
X365666667Y-72504762D01*
X365714286Y-72457143D01*
X365761905Y-72361905D01*
X365761905Y-72171429D01*
X365714286Y-72076190D01*
X365666667Y-72028571D01*
X365571429Y-71980952D01*
X99985714Y-72152381D02*
X99985714Y-71152381D01*
X100223809Y-71152381D01*
X100366667Y-71200000D01*
X100461905Y-71295238D01*
X100509524Y-71390476D01*
X100557143Y-71580952D01*
X100557143Y-71723810D01*
X100509524Y-71914286D01*
X100461905Y-72009524D01*
X100366667Y-72104762D01*
X100223809Y-72152381D01*
X99985714Y-72152381D01*
X100938095Y-71247619D02*
X100985714Y-71200000D01*
X101080952Y-71152381D01*
X101319048Y-71152381D01*
X101414286Y-71200000D01*
X101461905Y-71247619D01*
X101509524Y-71342857D01*
X101509524Y-71438095D01*
X101461905Y-71580952D01*
X100890476Y-72152381D01*
X101509524Y-72152381D01*
X101985714Y-72152381D02*
X102176190Y-72152381D01*
X102271429Y-72104762D01*
X102319048Y-72057143D01*
X102414286Y-71914286D01*
X102461905Y-71723810D01*
X102461905Y-71342857D01*
X102414286Y-71247619D01*
X102366667Y-71200000D01*
X102271429Y-71152381D01*
X102080952Y-71152381D01*
X101985714Y-71200000D01*
X101938095Y-71247619D01*
X101890476Y-71342857D01*
X101890476Y-71580952D01*
X101938095Y-71676190D01*
X101985714Y-71723810D01*
X102080952Y-71771429D01*
X102271429Y-71771429D01*
X102366667Y-71723810D01*
X102414286Y-71676190D01*
X102461905Y-71580952D01*
X189685714Y-77102381D02*
X189685714Y-76102381D01*
X189923809Y-76102381D01*
X190066667Y-76150000D01*
X190161905Y-76245238D01*
X190209524Y-76340476D01*
X190257143Y-76530952D01*
X190257143Y-76673810D01*
X190209524Y-76864286D01*
X190161905Y-76959524D01*
X190066667Y-77054762D01*
X189923809Y-77102381D01*
X189685714Y-77102381D01*
X190590476Y-76102381D02*
X191209524Y-76102381D01*
X190876190Y-76483333D01*
X191019048Y-76483333D01*
X191114286Y-76530952D01*
X191161905Y-76578571D01*
X191209524Y-76673810D01*
X191209524Y-76911905D01*
X191161905Y-77007143D01*
X191114286Y-77054762D01*
X191019048Y-77102381D01*
X190733333Y-77102381D01*
X190638095Y-77054762D01*
X190590476Y-77007143D01*
X191828571Y-76102381D02*
X191923810Y-76102381D01*
X192019048Y-76150000D01*
X192066667Y-76197619D01*
X192114286Y-76292857D01*
X192161905Y-76483333D01*
X192161905Y-76721429D01*
X192114286Y-76911905D01*
X192066667Y-77007143D01*
X192019048Y-77054762D01*
X191923810Y-77102381D01*
X191828571Y-77102381D01*
X191733333Y-77054762D01*
X191685714Y-77007143D01*
X191638095Y-76911905D01*
X191590476Y-76721429D01*
X191590476Y-76483333D01*
X191638095Y-76292857D01*
X191685714Y-76197619D01*
X191733333Y-76150000D01*
X191828571Y-76102381D01*
X277802381Y-75463306D02*
X276802381Y-75463306D01*
X276802381Y-75225211D01*
X276850000Y-75082353D01*
X276945238Y-74987115D01*
X277040476Y-74939496D01*
X277230952Y-74891877D01*
X277373810Y-74891877D01*
X277564286Y-74939496D01*
X277659524Y-74987115D01*
X277754762Y-75082353D01*
X277802381Y-75225211D01*
X277802381Y-75463306D01*
X276802381Y-74558544D02*
X276802381Y-73939496D01*
X277183333Y-74272830D01*
X277183333Y-74129972D01*
X277230952Y-74034734D01*
X277278571Y-73987115D01*
X277373810Y-73939496D01*
X277611905Y-73939496D01*
X277707143Y-73987115D01*
X277754762Y-74034734D01*
X277802381Y-74129972D01*
X277802381Y-74415687D01*
X277754762Y-74510925D01*
X277707143Y-74558544D01*
X277802381Y-72987115D02*
X277802381Y-73558544D01*
X277802381Y-73272830D02*
X276802381Y-73272830D01*
X276945238Y-73368068D01*
X277040476Y-73463306D01*
X277088095Y-73558544D01*
X358535714Y-72202381D02*
X358535714Y-71202381D01*
X358773809Y-71202381D01*
X358916667Y-71250000D01*
X359011905Y-71345238D01*
X359059524Y-71440476D01*
X359107143Y-71630952D01*
X359107143Y-71773810D01*
X359059524Y-71964286D01*
X359011905Y-72059524D01*
X358916667Y-72154762D01*
X358773809Y-72202381D01*
X358535714Y-72202381D01*
X359440476Y-71202381D02*
X360059524Y-71202381D01*
X359726190Y-71583333D01*
X359869048Y-71583333D01*
X359964286Y-71630952D01*
X360011905Y-71678571D01*
X360059524Y-71773810D01*
X360059524Y-72011905D01*
X360011905Y-72107143D01*
X359964286Y-72154762D01*
X359869048Y-72202381D01*
X359583333Y-72202381D01*
X359488095Y-72154762D01*
X359440476Y-72107143D01*
X360440476Y-71297619D02*
X360488095Y-71250000D01*
X360583333Y-71202381D01*
X360821429Y-71202381D01*
X360916667Y-71250000D01*
X360964286Y-71297619D01*
X361011905Y-71392857D01*
X361011905Y-71488095D01*
X360964286Y-71630952D01*
X360392857Y-72202381D01*
X361011905Y-72202381D01*
X175304762Y-176347619D02*
X175209524Y-176300000D01*
X175114286Y-176204762D01*
X174971429Y-176061905D01*
X174876190Y-176014286D01*
X174780952Y-176014286D01*
X174828571Y-176252381D02*
X174733333Y-176204762D01*
X174638095Y-176109524D01*
X174590476Y-175919048D01*
X174590476Y-175585714D01*
X174638095Y-175395238D01*
X174733333Y-175300000D01*
X174828571Y-175252381D01*
X175019048Y-175252381D01*
X175114286Y-175300000D01*
X175209524Y-175395238D01*
X175257143Y-175585714D01*
X175257143Y-175919048D01*
X175209524Y-176109524D01*
X175114286Y-176204762D01*
X175019048Y-176252381D01*
X174828571Y-176252381D01*
X175638095Y-175347619D02*
X175685714Y-175300000D01*
X175780952Y-175252381D01*
X176019048Y-175252381D01*
X176114286Y-175300000D01*
X176161905Y-175347619D01*
X176209524Y-175442857D01*
X176209524Y-175538095D01*
X176161905Y-175680952D01*
X175590476Y-176252381D01*
X176209524Y-176252381D01*
X263054762Y-176097619D02*
X262959524Y-176050000D01*
X262864286Y-175954762D01*
X262721429Y-175811905D01*
X262626190Y-175764286D01*
X262530952Y-175764286D01*
X262578571Y-176002381D02*
X262483333Y-175954762D01*
X262388095Y-175859524D01*
X262340476Y-175669048D01*
X262340476Y-175335714D01*
X262388095Y-175145238D01*
X262483333Y-175050000D01*
X262578571Y-175002381D01*
X262769048Y-175002381D01*
X262864286Y-175050000D01*
X262959524Y-175145238D01*
X263007143Y-175335714D01*
X263007143Y-175669048D01*
X262959524Y-175859524D01*
X262864286Y-175954762D01*
X262769048Y-176002381D01*
X262578571Y-176002381D01*
X263340476Y-175002381D02*
X263959524Y-175002381D01*
X263626190Y-175383333D01*
X263769048Y-175383333D01*
X263864286Y-175430952D01*
X263911905Y-175478571D01*
X263959524Y-175573810D01*
X263959524Y-175811905D01*
X263911905Y-175907143D01*
X263864286Y-175954762D01*
X263769048Y-176002381D01*
X263483333Y-176002381D01*
X263388095Y-175954762D01*
X263340476Y-175907143D01*
X348204762Y-176497619D02*
X348109524Y-176450000D01*
X348014286Y-176354762D01*
X347871429Y-176211905D01*
X347776190Y-176164286D01*
X347680952Y-176164286D01*
X347728571Y-176402381D02*
X347633333Y-176354762D01*
X347538095Y-176259524D01*
X347490476Y-176069048D01*
X347490476Y-175735714D01*
X347538095Y-175545238D01*
X347633333Y-175450000D01*
X347728571Y-175402381D01*
X347919048Y-175402381D01*
X348014286Y-175450000D01*
X348109524Y-175545238D01*
X348157143Y-175735714D01*
X348157143Y-176069048D01*
X348109524Y-176259524D01*
X348014286Y-176354762D01*
X347919048Y-176402381D01*
X347728571Y-176402381D01*
X349014286Y-175735714D02*
X349014286Y-176402381D01*
X348776190Y-175354762D02*
X348538095Y-176069048D01*
X349157143Y-176069048D01*
X58954762Y-66296859D02*
X58859524Y-66249240D01*
X58764286Y-66154002D01*
X58621429Y-66011145D01*
X58526190Y-65963526D01*
X58430952Y-65963526D01*
X58478571Y-66201621D02*
X58383333Y-66154002D01*
X58288095Y-66058764D01*
X58240476Y-65868288D01*
X58240476Y-65534954D01*
X58288095Y-65344478D01*
X58383333Y-65249240D01*
X58478571Y-65201621D01*
X58669048Y-65201621D01*
X58764286Y-65249240D01*
X58859524Y-65344478D01*
X58907143Y-65534954D01*
X58907143Y-65868288D01*
X58859524Y-66058764D01*
X58764286Y-66154002D01*
X58669048Y-66201621D01*
X58478571Y-66201621D01*
X59811905Y-65201621D02*
X59335714Y-65201621D01*
X59288095Y-65677811D01*
X59335714Y-65630192D01*
X59430952Y-65582573D01*
X59669048Y-65582573D01*
X59764286Y-65630192D01*
X59811905Y-65677811D01*
X59859524Y-65773050D01*
X59859524Y-66011145D01*
X59811905Y-66106383D01*
X59764286Y-66154002D01*
X59669048Y-66201621D01*
X59430952Y-66201621D01*
X59335714Y-66154002D01*
X59288095Y-66106383D01*
X145354762Y-67147619D02*
X145259524Y-67100000D01*
X145164286Y-67004762D01*
X145021429Y-66861905D01*
X144926190Y-66814286D01*
X144830952Y-66814286D01*
X144878571Y-67052381D02*
X144783333Y-67004762D01*
X144688095Y-66909524D01*
X144640476Y-66719048D01*
X144640476Y-66385714D01*
X144688095Y-66195238D01*
X144783333Y-66100000D01*
X144878571Y-66052381D01*
X145069048Y-66052381D01*
X145164286Y-66100000D01*
X145259524Y-66195238D01*
X145307143Y-66385714D01*
X145307143Y-66719048D01*
X145259524Y-66909524D01*
X145164286Y-67004762D01*
X145069048Y-67052381D01*
X144878571Y-67052381D01*
X146164286Y-66052381D02*
X145973809Y-66052381D01*
X145878571Y-66100000D01*
X145830952Y-66147619D01*
X145735714Y-66290476D01*
X145688095Y-66480952D01*
X145688095Y-66861905D01*
X145735714Y-66957143D01*
X145783333Y-67004762D01*
X145878571Y-67052381D01*
X146069048Y-67052381D01*
X146164286Y-67004762D01*
X146211905Y-66957143D01*
X146259524Y-66861905D01*
X146259524Y-66623810D01*
X146211905Y-66528571D01*
X146164286Y-66480952D01*
X146069048Y-66433333D01*
X145878571Y-66433333D01*
X145783333Y-66480952D01*
X145735714Y-66528571D01*
X145688095Y-66623810D01*
X231504762Y-66495839D02*
X231409524Y-66448220D01*
X231314286Y-66352982D01*
X231171429Y-66210125D01*
X231076190Y-66162506D01*
X230980952Y-66162506D01*
X231028571Y-66400601D02*
X230933333Y-66352982D01*
X230838095Y-66257744D01*
X230790476Y-66067268D01*
X230790476Y-65733934D01*
X230838095Y-65543458D01*
X230933333Y-65448220D01*
X231028571Y-65400601D01*
X231219048Y-65400601D01*
X231314286Y-65448220D01*
X231409524Y-65543458D01*
X231457143Y-65733934D01*
X231457143Y-66067268D01*
X231409524Y-66257744D01*
X231314286Y-66352982D01*
X231219048Y-66400601D01*
X231028571Y-66400601D01*
X231790476Y-65400601D02*
X232457143Y-65400601D01*
X232028571Y-66400601D01*
X317554762Y-65596859D02*
X317459524Y-65549240D01*
X317364286Y-65454002D01*
X317221429Y-65311145D01*
X317126190Y-65263526D01*
X317030952Y-65263526D01*
X317078571Y-65501621D02*
X316983333Y-65454002D01*
X316888095Y-65358764D01*
X316840476Y-65168288D01*
X316840476Y-64834954D01*
X316888095Y-64644478D01*
X316983333Y-64549240D01*
X317078571Y-64501621D01*
X317269048Y-64501621D01*
X317364286Y-64549240D01*
X317459524Y-64644478D01*
X317507143Y-64834954D01*
X317507143Y-65168288D01*
X317459524Y-65358764D01*
X317364286Y-65454002D01*
X317269048Y-65501621D01*
X317078571Y-65501621D01*
X318078571Y-64930192D02*
X317983333Y-64882573D01*
X317935714Y-64834954D01*
X317888095Y-64739716D01*
X317888095Y-64692097D01*
X317935714Y-64596859D01*
X317983333Y-64549240D01*
X318078571Y-64501621D01*
X318269048Y-64501621D01*
X318364286Y-64549240D01*
X318411905Y-64596859D01*
X318459524Y-64692097D01*
X318459524Y-64739716D01*
X318411905Y-64834954D01*
X318364286Y-64882573D01*
X318269048Y-64930192D01*
X318078571Y-64930192D01*
X317983333Y-64977811D01*
X317935714Y-65025430D01*
X317888095Y-65120669D01*
X317888095Y-65311145D01*
X317935714Y-65406383D01*
X317983333Y-65454002D01*
X318078571Y-65501621D01*
X318269048Y-65501621D01*
X318364286Y-65454002D01*
X318411905Y-65406383D01*
X318459524Y-65311145D01*
X318459524Y-65120669D01*
X318411905Y-65025430D01*
X318364286Y-64977811D01*
X318269048Y-64930192D01*
X213478572Y-175697619D02*
X213383334Y-175650000D01*
X213288096Y-175554762D01*
X213145239Y-175411905D01*
X213050000Y-175364286D01*
X212954762Y-175364286D01*
X213002381Y-175602381D02*
X212907143Y-175554762D01*
X212811905Y-175459524D01*
X212764286Y-175269048D01*
X212764286Y-174935714D01*
X212811905Y-174745238D01*
X212907143Y-174650000D01*
X213002381Y-174602381D01*
X213192858Y-174602381D01*
X213288096Y-174650000D01*
X213383334Y-174745238D01*
X213430953Y-174935714D01*
X213430953Y-175269048D01*
X213383334Y-175459524D01*
X213288096Y-175554762D01*
X213192858Y-175602381D01*
X213002381Y-175602381D01*
X214383334Y-175602381D02*
X213811905Y-175602381D01*
X214097619Y-175602381D02*
X214097619Y-174602381D01*
X214002381Y-174745238D01*
X213907143Y-174840476D01*
X213811905Y-174888095D01*
X215002381Y-174602381D02*
X215097620Y-174602381D01*
X215192858Y-174650000D01*
X215240477Y-174697619D01*
X215288096Y-174792857D01*
X215335715Y-174983333D01*
X215335715Y-175221429D01*
X215288096Y-175411905D01*
X215240477Y-175507143D01*
X215192858Y-175554762D01*
X215097620Y-175602381D01*
X215002381Y-175602381D01*
X214907143Y-175554762D01*
X214859524Y-175507143D01*
X214811905Y-175411905D01*
X214764286Y-175221429D01*
X214764286Y-174983333D01*
X214811905Y-174792857D01*
X214859524Y-174697619D01*
X214907143Y-174650000D01*
X215002381Y-174602381D01*
X301328572Y-175647619D02*
X301233334Y-175600000D01*
X301138096Y-175504762D01*
X300995239Y-175361905D01*
X300900000Y-175314286D01*
X300804762Y-175314286D01*
X300852381Y-175552381D02*
X300757143Y-175504762D01*
X300661905Y-175409524D01*
X300614286Y-175219048D01*
X300614286Y-174885714D01*
X300661905Y-174695238D01*
X300757143Y-174600000D01*
X300852381Y-174552381D01*
X301042858Y-174552381D01*
X301138096Y-174600000D01*
X301233334Y-174695238D01*
X301280953Y-174885714D01*
X301280953Y-175219048D01*
X301233334Y-175409524D01*
X301138096Y-175504762D01*
X301042858Y-175552381D01*
X300852381Y-175552381D01*
X302233334Y-175552381D02*
X301661905Y-175552381D01*
X301947619Y-175552381D02*
X301947619Y-174552381D01*
X301852381Y-174695238D01*
X301757143Y-174790476D01*
X301661905Y-174838095D01*
X303185715Y-175552381D02*
X302614286Y-175552381D01*
X302900000Y-175552381D02*
X302900000Y-174552381D01*
X302804762Y-174695238D01*
X302709524Y-174790476D01*
X302614286Y-174838095D01*
X384478572Y-176947619D02*
X384383334Y-176900000D01*
X384288096Y-176804762D01*
X384145239Y-176661905D01*
X384050000Y-176614286D01*
X383954762Y-176614286D01*
X384002381Y-176852381D02*
X383907143Y-176804762D01*
X383811905Y-176709524D01*
X383764286Y-176519048D01*
X383764286Y-176185714D01*
X383811905Y-175995238D01*
X383907143Y-175900000D01*
X384002381Y-175852381D01*
X384192858Y-175852381D01*
X384288096Y-175900000D01*
X384383334Y-175995238D01*
X384430953Y-176185714D01*
X384430953Y-176519048D01*
X384383334Y-176709524D01*
X384288096Y-176804762D01*
X384192858Y-176852381D01*
X384002381Y-176852381D01*
X385383334Y-176852381D02*
X384811905Y-176852381D01*
X385097619Y-176852381D02*
X385097619Y-175852381D01*
X385002381Y-175995238D01*
X384907143Y-176090476D01*
X384811905Y-176138095D01*
X385764286Y-175947619D02*
X385811905Y-175900000D01*
X385907143Y-175852381D01*
X386145239Y-175852381D01*
X386240477Y-175900000D01*
X386288096Y-175947619D01*
X386335715Y-176042857D01*
X386335715Y-176138095D01*
X386288096Y-176280952D01*
X385716667Y-176852381D01*
X386335715Y-176852381D01*
X93891703Y-65656238D02*
X93796465Y-65608619D01*
X93701227Y-65513381D01*
X93558370Y-65370524D01*
X93463131Y-65322905D01*
X93367893Y-65322905D01*
X93415512Y-65561000D02*
X93320274Y-65513381D01*
X93225036Y-65418143D01*
X93177417Y-65227667D01*
X93177417Y-64894333D01*
X93225036Y-64703857D01*
X93320274Y-64608619D01*
X93415512Y-64561000D01*
X93605989Y-64561000D01*
X93701227Y-64608619D01*
X93796465Y-64703857D01*
X93844084Y-64894333D01*
X93844084Y-65227667D01*
X93796465Y-65418143D01*
X93701227Y-65513381D01*
X93605989Y-65561000D01*
X93415512Y-65561000D01*
X94796465Y-65561000D02*
X94225036Y-65561000D01*
X94510750Y-65561000D02*
X94510750Y-64561000D01*
X94415512Y-64703857D01*
X94320274Y-64799095D01*
X94225036Y-64846714D01*
X95129798Y-64561000D02*
X95748846Y-64561000D01*
X95415512Y-64941952D01*
X95558370Y-64941952D01*
X95653608Y-64989571D01*
X95701227Y-65037190D01*
X95748846Y-65132429D01*
X95748846Y-65370524D01*
X95701227Y-65465762D01*
X95653608Y-65513381D01*
X95558370Y-65561000D01*
X95272655Y-65561000D01*
X95177417Y-65513381D01*
X95129798Y-65465762D01*
X184878572Y-66696859D02*
X184783334Y-66649240D01*
X184688096Y-66554002D01*
X184545239Y-66411145D01*
X184450000Y-66363526D01*
X184354762Y-66363526D01*
X184402381Y-66601621D02*
X184307143Y-66554002D01*
X184211905Y-66458764D01*
X184164286Y-66268288D01*
X184164286Y-65934954D01*
X184211905Y-65744478D01*
X184307143Y-65649240D01*
X184402381Y-65601621D01*
X184592858Y-65601621D01*
X184688096Y-65649240D01*
X184783334Y-65744478D01*
X184830953Y-65934954D01*
X184830953Y-66268288D01*
X184783334Y-66458764D01*
X184688096Y-66554002D01*
X184592858Y-66601621D01*
X184402381Y-66601621D01*
X185783334Y-66601621D02*
X185211905Y-66601621D01*
X185497619Y-66601621D02*
X185497619Y-65601621D01*
X185402381Y-65744478D01*
X185307143Y-65839716D01*
X185211905Y-65887335D01*
X186640477Y-65934954D02*
X186640477Y-66601621D01*
X186402381Y-65554002D02*
X186164286Y-66268288D01*
X186783334Y-66268288D01*
X270203572Y-66470839D02*
X270108334Y-66423220D01*
X270013096Y-66327982D01*
X269870239Y-66185125D01*
X269775000Y-66137506D01*
X269679762Y-66137506D01*
X269727381Y-66375601D02*
X269632143Y-66327982D01*
X269536905Y-66232744D01*
X269489286Y-66042268D01*
X269489286Y-65708934D01*
X269536905Y-65518458D01*
X269632143Y-65423220D01*
X269727381Y-65375601D01*
X269917858Y-65375601D01*
X270013096Y-65423220D01*
X270108334Y-65518458D01*
X270155953Y-65708934D01*
X270155953Y-66042268D01*
X270108334Y-66232744D01*
X270013096Y-66327982D01*
X269917858Y-66375601D01*
X269727381Y-66375601D01*
X271108334Y-66375601D02*
X270536905Y-66375601D01*
X270822619Y-66375601D02*
X270822619Y-65375601D01*
X270727381Y-65518458D01*
X270632143Y-65613696D01*
X270536905Y-65661315D01*
X272013096Y-65375601D02*
X271536905Y-65375601D01*
X271489286Y-65851791D01*
X271536905Y-65804172D01*
X271632143Y-65756553D01*
X271870239Y-65756553D01*
X271965477Y-65804172D01*
X272013096Y-65851791D01*
X272060715Y-65947030D01*
X272060715Y-66185125D01*
X272013096Y-66280363D01*
X271965477Y-66327982D01*
X271870239Y-66375601D01*
X271632143Y-66375601D01*
X271536905Y-66327982D01*
X271489286Y-66280363D01*
X231007143Y-72652381D02*
X230673809Y-72176190D01*
X230435714Y-72652381D02*
X230435714Y-71652381D01*
X230816667Y-71652381D01*
X230911905Y-71700000D01*
X230959524Y-71747619D01*
X231007143Y-71842857D01*
X231007143Y-71985714D01*
X230959524Y-72080952D01*
X230911905Y-72128571D01*
X230816667Y-72176190D01*
X230435714Y-72176190D01*
X231388095Y-71747619D02*
X231435714Y-71700000D01*
X231530952Y-71652381D01*
X231769048Y-71652381D01*
X231864286Y-71700000D01*
X231911905Y-71747619D01*
X231959524Y-71842857D01*
X231959524Y-71938095D01*
X231911905Y-72080952D01*
X231340476Y-72652381D01*
X231959524Y-72652381D01*
X232292857Y-71652381D02*
X232911905Y-71652381D01*
X232578571Y-72033333D01*
X232721429Y-72033333D01*
X232816667Y-72080952D01*
X232864286Y-72128571D01*
X232911905Y-72223810D01*
X232911905Y-72461905D01*
X232864286Y-72557143D01*
X232816667Y-72604762D01*
X232721429Y-72652381D01*
X232435714Y-72652381D01*
X232340476Y-72604762D01*
X232292857Y-72557143D01*
X403514571Y-136143133D02*
X403514571Y-136476467D01*
X404038381Y-136476467D02*
X403038381Y-136476467D01*
X403038381Y-136000276D01*
X404038381Y-135095514D02*
X404038381Y-135666943D01*
X404038381Y-135381229D02*
X403038381Y-135381229D01*
X403181238Y-135476467D01*
X403276476Y-135571705D01*
X403324095Y-135666943D01*
X56957143Y-75152381D02*
X56623809Y-74676190D01*
X56385714Y-75152381D02*
X56385714Y-74152381D01*
X56766667Y-74152381D01*
X56861905Y-74200000D01*
X56909524Y-74247619D01*
X56957143Y-74342857D01*
X56957143Y-74485714D01*
X56909524Y-74580952D01*
X56861905Y-74628571D01*
X56766667Y-74676190D01*
X56385714Y-74676190D01*
X57338095Y-74247619D02*
X57385714Y-74200000D01*
X57480952Y-74152381D01*
X57719048Y-74152381D01*
X57814286Y-74200000D01*
X57861905Y-74247619D01*
X57909524Y-74342857D01*
X57909524Y-74438095D01*
X57861905Y-74580952D01*
X57290476Y-75152381D01*
X57909524Y-75152381D01*
X58861905Y-75152381D02*
X58290476Y-75152381D01*
X58576190Y-75152381D02*
X58576190Y-74152381D01*
X58480952Y-74295238D01*
X58385714Y-74390476D01*
X58290476Y-74438095D01*
X113057143Y-176752381D02*
X112723809Y-176276190D01*
X112485714Y-176752381D02*
X112485714Y-175752381D01*
X112866667Y-175752381D01*
X112961905Y-175800000D01*
X113009524Y-175847619D01*
X113057143Y-175942857D01*
X113057143Y-176085714D01*
X113009524Y-176180952D01*
X112961905Y-176228571D01*
X112866667Y-176276190D01*
X112485714Y-176276190D01*
X113390476Y-175752381D02*
X114009524Y-175752381D01*
X113676190Y-176133333D01*
X113819048Y-176133333D01*
X113914286Y-176180952D01*
X113961905Y-176228571D01*
X114009524Y-176323810D01*
X114009524Y-176561905D01*
X113961905Y-176657143D01*
X113914286Y-176704762D01*
X113819048Y-176752381D01*
X113533333Y-176752381D01*
X113438095Y-176704762D01*
X113390476Y-176657143D01*
X114342857Y-175752381D02*
X114961905Y-175752381D01*
X114628571Y-176133333D01*
X114771429Y-176133333D01*
X114866667Y-176180952D01*
X114914286Y-176228571D01*
X114961905Y-176323810D01*
X114961905Y-176561905D01*
X114914286Y-176657143D01*
X114866667Y-176704762D01*
X114771429Y-176752381D01*
X114485714Y-176752381D01*
X114390476Y-176704762D01*
X114342857Y-176657143D01*
X96107143Y-74802381D02*
X95773809Y-74326190D01*
X95535714Y-74802381D02*
X95535714Y-73802381D01*
X95916667Y-73802381D01*
X96011905Y-73850000D01*
X96059524Y-73897619D01*
X96107143Y-73992857D01*
X96107143Y-74135714D01*
X96059524Y-74230952D01*
X96011905Y-74278571D01*
X95916667Y-74326190D01*
X95535714Y-74326190D01*
X96964286Y-74135714D02*
X96964286Y-74802381D01*
X96726190Y-73754762D02*
X96488095Y-74469048D01*
X97107143Y-74469048D01*
X97964286Y-73802381D02*
X97488095Y-73802381D01*
X97440476Y-74278571D01*
X97488095Y-74230952D01*
X97583333Y-74183333D01*
X97821429Y-74183333D01*
X97916667Y-74230952D01*
X97964286Y-74278571D01*
X98011905Y-74373810D01*
X98011905Y-74611905D01*
X97964286Y-74707143D01*
X97916667Y-74754762D01*
X97821429Y-74802381D01*
X97583333Y-74802381D01*
X97488095Y-74754762D01*
X97440476Y-74707143D01*
X183757143Y-76902381D02*
X183423809Y-76426190D01*
X183185714Y-76902381D02*
X183185714Y-75902381D01*
X183566667Y-75902381D01*
X183661905Y-75950000D01*
X183709524Y-75997619D01*
X183757143Y-76092857D01*
X183757143Y-76235714D01*
X183709524Y-76330952D01*
X183661905Y-76378571D01*
X183566667Y-76426190D01*
X183185714Y-76426190D01*
X184614286Y-76235714D02*
X184614286Y-76902381D01*
X184376190Y-75854762D02*
X184138095Y-76569048D01*
X184757143Y-76569048D01*
X185566667Y-75902381D02*
X185376190Y-75902381D01*
X185280952Y-75950000D01*
X185233333Y-75997619D01*
X185138095Y-76140476D01*
X185090476Y-76330952D01*
X185090476Y-76711905D01*
X185138095Y-76807143D01*
X185185714Y-76854762D01*
X185280952Y-76902381D01*
X185471429Y-76902381D01*
X185566667Y-76854762D01*
X185614286Y-76807143D01*
X185661905Y-76711905D01*
X185661905Y-76473810D01*
X185614286Y-76378571D01*
X185566667Y-76330952D01*
X185471429Y-76283333D01*
X185280952Y-76283333D01*
X185185714Y-76330952D01*
X185138095Y-76378571D01*
X185090476Y-76473810D01*
X164057143Y-176152381D02*
X163723809Y-175676190D01*
X163485714Y-176152381D02*
X163485714Y-175152381D01*
X163866667Y-175152381D01*
X163961905Y-175200000D01*
X164009524Y-175247619D01*
X164057143Y-175342857D01*
X164057143Y-175485714D01*
X164009524Y-175580952D01*
X163961905Y-175628571D01*
X163866667Y-175676190D01*
X163485714Y-175676190D01*
X165009524Y-176152381D02*
X164438095Y-176152381D01*
X164723809Y-176152381D02*
X164723809Y-175152381D01*
X164628571Y-175295238D01*
X164533333Y-175390476D01*
X164438095Y-175438095D01*
X165628571Y-175152381D02*
X165723810Y-175152381D01*
X165819048Y-175200000D01*
X165866667Y-175247619D01*
X165914286Y-175342857D01*
X165961905Y-175533333D01*
X165961905Y-175771429D01*
X165914286Y-175961905D01*
X165866667Y-176057143D01*
X165819048Y-176104762D01*
X165723810Y-176152381D01*
X165628571Y-176152381D01*
X165533333Y-176104762D01*
X165485714Y-176057143D01*
X165438095Y-175961905D01*
X165390476Y-175771429D01*
X165390476Y-175533333D01*
X165438095Y-175342857D01*
X165485714Y-175247619D01*
X165533333Y-175200000D01*
X165628571Y-175152381D01*
X250007143Y-176202381D02*
X249673809Y-175726190D01*
X249435714Y-176202381D02*
X249435714Y-175202381D01*
X249816667Y-175202381D01*
X249911905Y-175250000D01*
X249959524Y-175297619D01*
X250007143Y-175392857D01*
X250007143Y-175535714D01*
X249959524Y-175630952D01*
X249911905Y-175678571D01*
X249816667Y-175726190D01*
X249435714Y-175726190D01*
X250959524Y-176202381D02*
X250388095Y-176202381D01*
X250673809Y-176202381D02*
X250673809Y-175202381D01*
X250578571Y-175345238D01*
X250483333Y-175440476D01*
X250388095Y-175488095D01*
X251911905Y-176202381D02*
X251340476Y-176202381D01*
X251626190Y-176202381D02*
X251626190Y-175202381D01*
X251530952Y-175345238D01*
X251435714Y-175440476D01*
X251340476Y-175488095D01*
X334607143Y-176752381D02*
X334273809Y-176276190D01*
X334035714Y-176752381D02*
X334035714Y-175752381D01*
X334416667Y-175752381D01*
X334511905Y-175800000D01*
X334559524Y-175847619D01*
X334607143Y-175942857D01*
X334607143Y-176085714D01*
X334559524Y-176180952D01*
X334511905Y-176228571D01*
X334416667Y-176276190D01*
X334035714Y-176276190D01*
X335559524Y-176752381D02*
X334988095Y-176752381D01*
X335273809Y-176752381D02*
X335273809Y-175752381D01*
X335178571Y-175895238D01*
X335083333Y-175990476D01*
X334988095Y-176038095D01*
X335940476Y-175847619D02*
X335988095Y-175800000D01*
X336083333Y-175752381D01*
X336321429Y-175752381D01*
X336416667Y-175800000D01*
X336464286Y-175847619D01*
X336511905Y-175942857D01*
X336511905Y-176038095D01*
X336464286Y-176180952D01*
X335892857Y-176752381D01*
X336511905Y-176752381D01*
X315407143Y-74802381D02*
X315073809Y-74326190D01*
X314835714Y-74802381D02*
X314835714Y-73802381D01*
X315216667Y-73802381D01*
X315311905Y-73850000D01*
X315359524Y-73897619D01*
X315407143Y-73992857D01*
X315407143Y-74135714D01*
X315359524Y-74230952D01*
X315311905Y-74278571D01*
X315216667Y-74326190D01*
X314835714Y-74326190D01*
X315788095Y-73897619D02*
X315835714Y-73850000D01*
X315930952Y-73802381D01*
X316169048Y-73802381D01*
X316264286Y-73850000D01*
X316311905Y-73897619D01*
X316359524Y-73992857D01*
X316359524Y-74088095D01*
X316311905Y-74230952D01*
X315740476Y-74802381D01*
X316359524Y-74802381D01*
X317216667Y-74135714D02*
X317216667Y-74802381D01*
X316978571Y-73754762D02*
X316740476Y-74469048D01*
X317359524Y-74469048D01*
X116407143Y-174152381D02*
X116073809Y-173676190D01*
X115835714Y-174152381D02*
X115835714Y-173152381D01*
X116216667Y-173152381D01*
X116311905Y-173200000D01*
X116359524Y-173247619D01*
X116407143Y-173342857D01*
X116407143Y-173485714D01*
X116359524Y-173580952D01*
X116311905Y-173628571D01*
X116216667Y-173676190D01*
X115835714Y-173676190D01*
X116788095Y-173247619D02*
X116835714Y-173200000D01*
X116930952Y-173152381D01*
X117169048Y-173152381D01*
X117264286Y-173200000D01*
X117311905Y-173247619D01*
X117359524Y-173342857D01*
X117359524Y-173438095D01*
X117311905Y-173580952D01*
X116740476Y-174152381D01*
X117359524Y-174152381D01*
X117835714Y-174152381D02*
X118026190Y-174152381D01*
X118121429Y-174104762D01*
X118169048Y-174057143D01*
X118264286Y-173914286D01*
X118311905Y-173723810D01*
X118311905Y-173342857D01*
X118264286Y-173247619D01*
X118216667Y-173200000D01*
X118121429Y-173152381D01*
X117930952Y-173152381D01*
X117835714Y-173200000D01*
X117788095Y-173247619D01*
X117740476Y-173342857D01*
X117740476Y-173580952D01*
X117788095Y-173676190D01*
X117835714Y-173723810D01*
X117930952Y-173771429D01*
X118121429Y-173771429D01*
X118216667Y-173723810D01*
X118264286Y-173676190D01*
X118311905Y-173580952D01*
X202157143Y-176452381D02*
X201823809Y-175976190D01*
X201585714Y-176452381D02*
X201585714Y-175452381D01*
X201966667Y-175452381D01*
X202061905Y-175500000D01*
X202109524Y-175547619D01*
X202157143Y-175642857D01*
X202157143Y-175785714D01*
X202109524Y-175880952D01*
X202061905Y-175928571D01*
X201966667Y-175976190D01*
X201585714Y-175976190D01*
X202490476Y-175452381D02*
X203109524Y-175452381D01*
X202776190Y-175833333D01*
X202919048Y-175833333D01*
X203014286Y-175880952D01*
X203061905Y-175928571D01*
X203109524Y-176023810D01*
X203109524Y-176261905D01*
X203061905Y-176357143D01*
X203014286Y-176404762D01*
X202919048Y-176452381D01*
X202633333Y-176452381D01*
X202538095Y-176404762D01*
X202490476Y-176357143D01*
X203966667Y-175785714D02*
X203966667Y-176452381D01*
X203728571Y-175404762D02*
X203490476Y-176119048D01*
X204109524Y-176119048D01*
X287407143Y-175802381D02*
X287073809Y-175326190D01*
X286835714Y-175802381D02*
X286835714Y-174802381D01*
X287216667Y-174802381D01*
X287311905Y-174850000D01*
X287359524Y-174897619D01*
X287407143Y-174992857D01*
X287407143Y-175135714D01*
X287359524Y-175230952D01*
X287311905Y-175278571D01*
X287216667Y-175326190D01*
X286835714Y-175326190D01*
X287740476Y-174802381D02*
X288359524Y-174802381D01*
X288026190Y-175183333D01*
X288169048Y-175183333D01*
X288264286Y-175230952D01*
X288311905Y-175278571D01*
X288359524Y-175373810D01*
X288359524Y-175611905D01*
X288311905Y-175707143D01*
X288264286Y-175754762D01*
X288169048Y-175802381D01*
X287883333Y-175802381D01*
X287788095Y-175754762D01*
X287740476Y-175707143D01*
X289264286Y-174802381D02*
X288788095Y-174802381D01*
X288740476Y-175278571D01*
X288788095Y-175230952D01*
X288883333Y-175183333D01*
X289121429Y-175183333D01*
X289216667Y-175230952D01*
X289264286Y-175278571D01*
X289311905Y-175373810D01*
X289311905Y-175611905D01*
X289264286Y-175707143D01*
X289216667Y-175754762D01*
X289121429Y-175802381D01*
X288883333Y-175802381D01*
X288788095Y-175754762D01*
X288740476Y-175707143D01*
X372257143Y-177702381D02*
X371923809Y-177226190D01*
X371685714Y-177702381D02*
X371685714Y-176702381D01*
X372066667Y-176702381D01*
X372161905Y-176750000D01*
X372209524Y-176797619D01*
X372257143Y-176892857D01*
X372257143Y-177035714D01*
X372209524Y-177130952D01*
X372161905Y-177178571D01*
X372066667Y-177226190D01*
X371685714Y-177226190D01*
X372590476Y-176702381D02*
X373209524Y-176702381D01*
X372876190Y-177083333D01*
X373019048Y-177083333D01*
X373114286Y-177130952D01*
X373161905Y-177178571D01*
X373209524Y-177273810D01*
X373209524Y-177511905D01*
X373161905Y-177607143D01*
X373114286Y-177654762D01*
X373019048Y-177702381D01*
X372733333Y-177702381D01*
X372638095Y-177654762D01*
X372590476Y-177607143D01*
X374066667Y-176702381D02*
X373876190Y-176702381D01*
X373780952Y-176750000D01*
X373733333Y-176797619D01*
X373638095Y-176940476D01*
X373590476Y-177130952D01*
X373590476Y-177511905D01*
X373638095Y-177607143D01*
X373685714Y-177654762D01*
X373780952Y-177702381D01*
X373971429Y-177702381D01*
X374066667Y-177654762D01*
X374114286Y-177607143D01*
X374161905Y-177511905D01*
X374161905Y-177273810D01*
X374114286Y-177178571D01*
X374066667Y-177130952D01*
X373971429Y-177083333D01*
X373780952Y-177083333D01*
X373685714Y-177130952D01*
X373638095Y-177178571D01*
X373590476Y-177273810D01*
X268552381Y-73242857D02*
X268076190Y-73576191D01*
X268552381Y-73814286D02*
X267552381Y-73814286D01*
X267552381Y-73433333D01*
X267600000Y-73338095D01*
X267647619Y-73290476D01*
X267742857Y-73242857D01*
X267885714Y-73242857D01*
X267980952Y-73290476D01*
X268028571Y-73338095D01*
X268076190Y-73433333D01*
X268076190Y-73814286D01*
X267885714Y-72385714D02*
X268552381Y-72385714D01*
X267504762Y-72623810D02*
X268219048Y-72861905D01*
X268219048Y-72242857D01*
X267552381Y-71957143D02*
X267552381Y-71290476D01*
X268552381Y-71719048D01*
X353357143Y-75302381D02*
X353023809Y-74826190D01*
X352785714Y-75302381D02*
X352785714Y-74302381D01*
X353166667Y-74302381D01*
X353261905Y-74350000D01*
X353309524Y-74397619D01*
X353357143Y-74492857D01*
X353357143Y-74635714D01*
X353309524Y-74730952D01*
X353261905Y-74778571D01*
X353166667Y-74826190D01*
X352785714Y-74826190D01*
X354214286Y-74635714D02*
X354214286Y-75302381D01*
X353976190Y-74254762D02*
X353738095Y-74969048D01*
X354357143Y-74969048D01*
X354880952Y-74730952D02*
X354785714Y-74683333D01*
X354738095Y-74635714D01*
X354690476Y-74540476D01*
X354690476Y-74492857D01*
X354738095Y-74397619D01*
X354785714Y-74350000D01*
X354880952Y-74302381D01*
X355071429Y-74302381D01*
X355166667Y-74350000D01*
X355214286Y-74397619D01*
X355261905Y-74492857D01*
X355261905Y-74540476D01*
X355214286Y-74635714D01*
X355166667Y-74683333D01*
X355071429Y-74730952D01*
X354880952Y-74730952D01*
X354785714Y-74778571D01*
X354738095Y-74826190D01*
X354690476Y-74921429D01*
X354690476Y-75111905D01*
X354738095Y-75207143D01*
X354785714Y-75254762D01*
X354880952Y-75302381D01*
X355071429Y-75302381D01*
X355166667Y-75254762D01*
X355214286Y-75207143D01*
X355261905Y-75111905D01*
X355261905Y-74921429D01*
X355214286Y-74826190D01*
X355166667Y-74778571D01*
X355071429Y-74730952D01*
X81433334Y-172052381D02*
X81100000Y-171576190D01*
X80861905Y-172052381D02*
X80861905Y-171052381D01*
X81242858Y-171052381D01*
X81338096Y-171100000D01*
X81385715Y-171147619D01*
X81433334Y-171242857D01*
X81433334Y-171385714D01*
X81385715Y-171480952D01*
X81338096Y-171528571D01*
X81242858Y-171576190D01*
X80861905Y-171576190D01*
X82338096Y-171052381D02*
X81861905Y-171052381D01*
X81814286Y-171528571D01*
X81861905Y-171480952D01*
X81957143Y-171433333D01*
X82195239Y-171433333D01*
X82290477Y-171480952D01*
X82338096Y-171528571D01*
X82385715Y-171623810D01*
X82385715Y-171861905D01*
X82338096Y-171957143D01*
X82290477Y-172004762D01*
X82195239Y-172052381D01*
X81957143Y-172052381D01*
X81861905Y-172004762D01*
X81814286Y-171957143D01*
X169183334Y-172202381D02*
X168850000Y-171726190D01*
X168611905Y-172202381D02*
X168611905Y-171202381D01*
X168992858Y-171202381D01*
X169088096Y-171250000D01*
X169135715Y-171297619D01*
X169183334Y-171392857D01*
X169183334Y-171535714D01*
X169135715Y-171630952D01*
X169088096Y-171678571D01*
X168992858Y-171726190D01*
X168611905Y-171726190D01*
X170040477Y-171202381D02*
X169850000Y-171202381D01*
X169754762Y-171250000D01*
X169707143Y-171297619D01*
X169611905Y-171440476D01*
X169564286Y-171630952D01*
X169564286Y-172011905D01*
X169611905Y-172107143D01*
X169659524Y-172154762D01*
X169754762Y-172202381D01*
X169945239Y-172202381D01*
X170040477Y-172154762D01*
X170088096Y-172107143D01*
X170135715Y-172011905D01*
X170135715Y-171773810D01*
X170088096Y-171678571D01*
X170040477Y-171630952D01*
X169945239Y-171583333D01*
X169754762Y-171583333D01*
X169659524Y-171630952D01*
X169611905Y-171678571D01*
X169564286Y-171773810D01*
X254133334Y-172402381D02*
X253800000Y-171926190D01*
X253561905Y-172402381D02*
X253561905Y-171402381D01*
X253942858Y-171402381D01*
X254038096Y-171450000D01*
X254085715Y-171497619D01*
X254133334Y-171592857D01*
X254133334Y-171735714D01*
X254085715Y-171830952D01*
X254038096Y-171878571D01*
X253942858Y-171926190D01*
X253561905Y-171926190D01*
X254466667Y-171402381D02*
X255133334Y-171402381D01*
X254704762Y-172402381D01*
X339533334Y-172702381D02*
X339200000Y-172226190D01*
X338961905Y-172702381D02*
X338961905Y-171702381D01*
X339342858Y-171702381D01*
X339438096Y-171750000D01*
X339485715Y-171797619D01*
X339533334Y-171892857D01*
X339533334Y-172035714D01*
X339485715Y-172130952D01*
X339438096Y-172178571D01*
X339342858Y-172226190D01*
X338961905Y-172226190D01*
X340104762Y-172130952D02*
X340009524Y-172083333D01*
X339961905Y-172035714D01*
X339914286Y-171940476D01*
X339914286Y-171892857D01*
X339961905Y-171797619D01*
X340009524Y-171750000D01*
X340104762Y-171702381D01*
X340295239Y-171702381D01*
X340390477Y-171750000D01*
X340438096Y-171797619D01*
X340485715Y-171892857D01*
X340485715Y-171940476D01*
X340438096Y-172035714D01*
X340390477Y-172083333D01*
X340295239Y-172130952D01*
X340104762Y-172130952D01*
X340009524Y-172178571D01*
X339961905Y-172226190D01*
X339914286Y-172321429D01*
X339914286Y-172511905D01*
X339961905Y-172607143D01*
X340009524Y-172654762D01*
X340104762Y-172702381D01*
X340295239Y-172702381D01*
X340390477Y-172654762D01*
X340438096Y-172607143D01*
X340485715Y-172511905D01*
X340485715Y-172321429D01*
X340438096Y-172226190D01*
X340390477Y-172178571D01*
X340295239Y-172130952D01*
X63557143Y-66352381D02*
X63223809Y-65876190D01*
X62985714Y-66352381D02*
X62985714Y-65352381D01*
X63366667Y-65352381D01*
X63461905Y-65400000D01*
X63509524Y-65447619D01*
X63557143Y-65542857D01*
X63557143Y-65685714D01*
X63509524Y-65780952D01*
X63461905Y-65828571D01*
X63366667Y-65876190D01*
X62985714Y-65876190D01*
X64509524Y-66352381D02*
X63938095Y-66352381D01*
X64223809Y-66352381D02*
X64223809Y-65352381D01*
X64128571Y-65495238D01*
X64033333Y-65590476D01*
X63938095Y-65638095D01*
X64842857Y-65352381D02*
X65461905Y-65352381D01*
X65128571Y-65733333D01*
X65271429Y-65733333D01*
X65366667Y-65780952D01*
X65414286Y-65828571D01*
X65461905Y-65923810D01*
X65461905Y-66161905D01*
X65414286Y-66257143D01*
X65366667Y-66304762D01*
X65271429Y-66352381D01*
X64985714Y-66352381D01*
X64890476Y-66304762D01*
X64842857Y-66257143D01*
X149957143Y-66952381D02*
X149623809Y-66476190D01*
X149385714Y-66952381D02*
X149385714Y-65952381D01*
X149766667Y-65952381D01*
X149861905Y-66000000D01*
X149909524Y-66047619D01*
X149957143Y-66142857D01*
X149957143Y-66285714D01*
X149909524Y-66380952D01*
X149861905Y-66428571D01*
X149766667Y-66476190D01*
X149385714Y-66476190D01*
X150909524Y-66952381D02*
X150338095Y-66952381D01*
X150623809Y-66952381D02*
X150623809Y-65952381D01*
X150528571Y-66095238D01*
X150433333Y-66190476D01*
X150338095Y-66238095D01*
X151480952Y-66380952D02*
X151385714Y-66333333D01*
X151338095Y-66285714D01*
X151290476Y-66190476D01*
X151290476Y-66142857D01*
X151338095Y-66047619D01*
X151385714Y-66000000D01*
X151480952Y-65952381D01*
X151671429Y-65952381D01*
X151766667Y-66000000D01*
X151814286Y-66047619D01*
X151861905Y-66142857D01*
X151861905Y-66190476D01*
X151814286Y-66285714D01*
X151766667Y-66333333D01*
X151671429Y-66380952D01*
X151480952Y-66380952D01*
X151385714Y-66428571D01*
X151338095Y-66476190D01*
X151290476Y-66571429D01*
X151290476Y-66761905D01*
X151338095Y-66857143D01*
X151385714Y-66904762D01*
X151480952Y-66952381D01*
X151671429Y-66952381D01*
X151766667Y-66904762D01*
X151814286Y-66857143D01*
X151861905Y-66761905D01*
X151861905Y-66571429D01*
X151814286Y-66476190D01*
X151766667Y-66428571D01*
X151671429Y-66380952D01*
X237157143Y-66302381D02*
X236823809Y-65826190D01*
X236585714Y-66302381D02*
X236585714Y-65302381D01*
X236966667Y-65302381D01*
X237061905Y-65350000D01*
X237109524Y-65397619D01*
X237157143Y-65492857D01*
X237157143Y-65635714D01*
X237109524Y-65730952D01*
X237061905Y-65778571D01*
X236966667Y-65826190D01*
X236585714Y-65826190D01*
X238109524Y-66302381D02*
X237538095Y-66302381D01*
X237823809Y-66302381D02*
X237823809Y-65302381D01*
X237728571Y-65445238D01*
X237633333Y-65540476D01*
X237538095Y-65588095D01*
X238585714Y-66302381D02*
X238776190Y-66302381D01*
X238871429Y-66254762D01*
X238919048Y-66207143D01*
X239014286Y-66064286D01*
X239061905Y-65873810D01*
X239061905Y-65492857D01*
X239014286Y-65397619D01*
X238966667Y-65350000D01*
X238871429Y-65302381D01*
X238680952Y-65302381D01*
X238585714Y-65350000D01*
X238538095Y-65397619D01*
X238490476Y-65492857D01*
X238490476Y-65730952D01*
X238538095Y-65826190D01*
X238585714Y-65873810D01*
X238680952Y-65921429D01*
X238871429Y-65921429D01*
X238966667Y-65873810D01*
X239014286Y-65826190D01*
X239061905Y-65730952D01*
X322907143Y-66202381D02*
X322573809Y-65726190D01*
X322335714Y-66202381D02*
X322335714Y-65202381D01*
X322716667Y-65202381D01*
X322811905Y-65250000D01*
X322859524Y-65297619D01*
X322907143Y-65392857D01*
X322907143Y-65535714D01*
X322859524Y-65630952D01*
X322811905Y-65678571D01*
X322716667Y-65726190D01*
X322335714Y-65726190D01*
X323288095Y-65297619D02*
X323335714Y-65250000D01*
X323430952Y-65202381D01*
X323669048Y-65202381D01*
X323764286Y-65250000D01*
X323811905Y-65297619D01*
X323859524Y-65392857D01*
X323859524Y-65488095D01*
X323811905Y-65630952D01*
X323240476Y-66202381D01*
X323859524Y-66202381D01*
X324478571Y-65202381D02*
X324573810Y-65202381D01*
X324669048Y-65250000D01*
X324716667Y-65297619D01*
X324764286Y-65392857D01*
X324811905Y-65583333D01*
X324811905Y-65821429D01*
X324764286Y-66011905D01*
X324716667Y-66107143D01*
X324669048Y-66154762D01*
X324573810Y-66202381D01*
X324478571Y-66202381D01*
X324383333Y-66154762D01*
X324335714Y-66107143D01*
X324288095Y-66011905D01*
X324240476Y-65821429D01*
X324240476Y-65583333D01*
X324288095Y-65392857D01*
X324335714Y-65297619D01*
X324383333Y-65250000D01*
X324478571Y-65202381D01*
X206207143Y-172452381D02*
X205873809Y-171976190D01*
X205635714Y-172452381D02*
X205635714Y-171452381D01*
X206016667Y-171452381D01*
X206111905Y-171500000D01*
X206159524Y-171547619D01*
X206207143Y-171642857D01*
X206207143Y-171785714D01*
X206159524Y-171880952D01*
X206111905Y-171928571D01*
X206016667Y-171976190D01*
X205635714Y-171976190D01*
X206540476Y-171452381D02*
X207159524Y-171452381D01*
X206826190Y-171833333D01*
X206969048Y-171833333D01*
X207064286Y-171880952D01*
X207111905Y-171928571D01*
X207159524Y-172023810D01*
X207159524Y-172261905D01*
X207111905Y-172357143D01*
X207064286Y-172404762D01*
X206969048Y-172452381D01*
X206683333Y-172452381D01*
X206588095Y-172404762D01*
X206540476Y-172357143D01*
X207778571Y-171452381D02*
X207873810Y-171452381D01*
X207969048Y-171500000D01*
X208016667Y-171547619D01*
X208064286Y-171642857D01*
X208111905Y-171833333D01*
X208111905Y-172071429D01*
X208064286Y-172261905D01*
X208016667Y-172357143D01*
X207969048Y-172404762D01*
X207873810Y-172452381D01*
X207778571Y-172452381D01*
X207683333Y-172404762D01*
X207635714Y-172357143D01*
X207588095Y-172261905D01*
X207540476Y-172071429D01*
X207540476Y-171833333D01*
X207588095Y-171642857D01*
X207635714Y-171547619D01*
X207683333Y-171500000D01*
X207778571Y-171452381D01*
X292057143Y-171802381D02*
X291723809Y-171326190D01*
X291485714Y-171802381D02*
X291485714Y-170802381D01*
X291866667Y-170802381D01*
X291961905Y-170850000D01*
X292009524Y-170897619D01*
X292057143Y-170992857D01*
X292057143Y-171135714D01*
X292009524Y-171230952D01*
X291961905Y-171278571D01*
X291866667Y-171326190D01*
X291485714Y-171326190D01*
X292390476Y-170802381D02*
X293009524Y-170802381D01*
X292676190Y-171183333D01*
X292819048Y-171183333D01*
X292914286Y-171230952D01*
X292961905Y-171278571D01*
X293009524Y-171373810D01*
X293009524Y-171611905D01*
X292961905Y-171707143D01*
X292914286Y-171754762D01*
X292819048Y-171802381D01*
X292533333Y-171802381D01*
X292438095Y-171754762D01*
X292390476Y-171707143D01*
X293961905Y-171802381D02*
X293390476Y-171802381D01*
X293676190Y-171802381D02*
X293676190Y-170802381D01*
X293580952Y-170945238D01*
X293485714Y-171040476D01*
X293390476Y-171088095D01*
X375707143Y-173752381D02*
X375373809Y-173276190D01*
X375135714Y-173752381D02*
X375135714Y-172752381D01*
X375516667Y-172752381D01*
X375611905Y-172800000D01*
X375659524Y-172847619D01*
X375707143Y-172942857D01*
X375707143Y-173085714D01*
X375659524Y-173180952D01*
X375611905Y-173228571D01*
X375516667Y-173276190D01*
X375135714Y-173276190D01*
X376040476Y-172752381D02*
X376659524Y-172752381D01*
X376326190Y-173133333D01*
X376469048Y-173133333D01*
X376564286Y-173180952D01*
X376611905Y-173228571D01*
X376659524Y-173323810D01*
X376659524Y-173561905D01*
X376611905Y-173657143D01*
X376564286Y-173704762D01*
X376469048Y-173752381D01*
X376183333Y-173752381D01*
X376088095Y-173704762D01*
X376040476Y-173657143D01*
X377040476Y-172847619D02*
X377088095Y-172800000D01*
X377183333Y-172752381D01*
X377421429Y-172752381D01*
X377516667Y-172800000D01*
X377564286Y-172847619D01*
X377611905Y-172942857D01*
X377611905Y-173038095D01*
X377564286Y-173180952D01*
X376992857Y-173752381D01*
X377611905Y-173752381D01*
X189307143Y-69202381D02*
X188973809Y-68726190D01*
X188735714Y-69202381D02*
X188735714Y-68202381D01*
X189116667Y-68202381D01*
X189211905Y-68250000D01*
X189259524Y-68297619D01*
X189307143Y-68392857D01*
X189307143Y-68535714D01*
X189259524Y-68630952D01*
X189211905Y-68678571D01*
X189116667Y-68726190D01*
X188735714Y-68726190D01*
X190164286Y-68535714D02*
X190164286Y-69202381D01*
X189926190Y-68154762D02*
X189688095Y-68869048D01*
X190307143Y-68869048D01*
X190640476Y-68297619D02*
X190688095Y-68250000D01*
X190783333Y-68202381D01*
X191021429Y-68202381D01*
X191116667Y-68250000D01*
X191164286Y-68297619D01*
X191211905Y-68392857D01*
X191211905Y-68488095D01*
X191164286Y-68630952D01*
X190592857Y-69202381D01*
X191211905Y-69202381D01*
X277352381Y-68942857D02*
X276876190Y-69276191D01*
X277352381Y-69514286D02*
X276352381Y-69514286D01*
X276352381Y-69133333D01*
X276400000Y-69038095D01*
X276447619Y-68990476D01*
X276542857Y-68942857D01*
X276685714Y-68942857D01*
X276780952Y-68990476D01*
X276828571Y-69038095D01*
X276876190Y-69133333D01*
X276876190Y-69514286D01*
X276685714Y-68085714D02*
X277352381Y-68085714D01*
X276304762Y-68323810D02*
X277019048Y-68561905D01*
X277019048Y-67942857D01*
X276352381Y-67657143D02*
X276352381Y-67038095D01*
X276733333Y-67371429D01*
X276733333Y-67228571D01*
X276780952Y-67133333D01*
X276828571Y-67085714D01*
X276923810Y-67038095D01*
X277161905Y-67038095D01*
X277257143Y-67085714D01*
X277304762Y-67133333D01*
X277352381Y-67228571D01*
X277352381Y-67514286D01*
X277304762Y-67609524D01*
X277257143Y-67657143D01*
X361107143Y-70052381D02*
X360773809Y-69576190D01*
X360535714Y-70052381D02*
X360535714Y-69052381D01*
X360916667Y-69052381D01*
X361011905Y-69100000D01*
X361059524Y-69147619D01*
X361107143Y-69242857D01*
X361107143Y-69385714D01*
X361059524Y-69480952D01*
X361011905Y-69528571D01*
X360916667Y-69576190D01*
X360535714Y-69576190D01*
X361964286Y-69385714D02*
X361964286Y-70052381D01*
X361726190Y-69004762D02*
X361488095Y-69719048D01*
X362107143Y-69719048D01*
X362916667Y-69385714D02*
X362916667Y-70052381D01*
X362678571Y-69004762D02*
X362440476Y-69719048D01*
X363059524Y-69719048D01*
X87583334Y-167852381D02*
X87250000Y-167376190D01*
X87011905Y-167852381D02*
X87011905Y-166852381D01*
X87392858Y-166852381D01*
X87488096Y-166900000D01*
X87535715Y-166947619D01*
X87583334Y-167042857D01*
X87583334Y-167185714D01*
X87535715Y-167280952D01*
X87488096Y-167328571D01*
X87392858Y-167376190D01*
X87011905Y-167376190D01*
X88535715Y-167852381D02*
X87964286Y-167852381D01*
X88250000Y-167852381D02*
X88250000Y-166852381D01*
X88154762Y-166995238D01*
X88059524Y-167090476D01*
X87964286Y-167138095D01*
X174433334Y-168102381D02*
X174100000Y-167626190D01*
X173861905Y-168102381D02*
X173861905Y-167102381D01*
X174242858Y-167102381D01*
X174338096Y-167150000D01*
X174385715Y-167197619D01*
X174433334Y-167292857D01*
X174433334Y-167435714D01*
X174385715Y-167530952D01*
X174338096Y-167578571D01*
X174242858Y-167626190D01*
X173861905Y-167626190D01*
X174814286Y-167197619D02*
X174861905Y-167150000D01*
X174957143Y-167102381D01*
X175195239Y-167102381D01*
X175290477Y-167150000D01*
X175338096Y-167197619D01*
X175385715Y-167292857D01*
X175385715Y-167388095D01*
X175338096Y-167530952D01*
X174766667Y-168102381D01*
X175385715Y-168102381D01*
X262083334Y-168052381D02*
X261750000Y-167576190D01*
X261511905Y-168052381D02*
X261511905Y-167052381D01*
X261892858Y-167052381D01*
X261988096Y-167100000D01*
X262035715Y-167147619D01*
X262083334Y-167242857D01*
X262083334Y-167385714D01*
X262035715Y-167480952D01*
X261988096Y-167528571D01*
X261892858Y-167576190D01*
X261511905Y-167576190D01*
X262416667Y-167052381D02*
X263035715Y-167052381D01*
X262702381Y-167433333D01*
X262845239Y-167433333D01*
X262940477Y-167480952D01*
X262988096Y-167528571D01*
X263035715Y-167623810D01*
X263035715Y-167861905D01*
X262988096Y-167957143D01*
X262940477Y-168004762D01*
X262845239Y-168052381D01*
X262559524Y-168052381D01*
X262464286Y-168004762D01*
X262416667Y-167957143D01*
X347283334Y-168552381D02*
X346950000Y-168076190D01*
X346711905Y-168552381D02*
X346711905Y-167552381D01*
X347092858Y-167552381D01*
X347188096Y-167600000D01*
X347235715Y-167647619D01*
X347283334Y-167742857D01*
X347283334Y-167885714D01*
X347235715Y-167980952D01*
X347188096Y-168028571D01*
X347092858Y-168076190D01*
X346711905Y-168076190D01*
X348140477Y-167885714D02*
X348140477Y-168552381D01*
X347902381Y-167504762D02*
X347664286Y-168219048D01*
X348283334Y-168219048D01*
X154707143Y-67452381D02*
X154373809Y-66976190D01*
X154135714Y-67452381D02*
X154135714Y-66452381D01*
X154516667Y-66452381D01*
X154611905Y-66500000D01*
X154659524Y-66547619D01*
X154707143Y-66642857D01*
X154707143Y-66785714D01*
X154659524Y-66880952D01*
X154611905Y-66928571D01*
X154516667Y-66976190D01*
X154135714Y-66976190D01*
X155659524Y-67452381D02*
X155088095Y-67452381D01*
X155373809Y-67452381D02*
X155373809Y-66452381D01*
X155278571Y-66595238D01*
X155183333Y-66690476D01*
X155088095Y-66738095D01*
X156516667Y-66785714D02*
X156516667Y-67452381D01*
X156278571Y-66404762D02*
X156040476Y-67119048D01*
X156659524Y-67119048D01*
X240757143Y-66552381D02*
X240423809Y-66076190D01*
X240185714Y-66552381D02*
X240185714Y-65552381D01*
X240566667Y-65552381D01*
X240661905Y-65600000D01*
X240709524Y-65647619D01*
X240757143Y-65742857D01*
X240757143Y-65885714D01*
X240709524Y-65980952D01*
X240661905Y-66028571D01*
X240566667Y-66076190D01*
X240185714Y-66076190D01*
X241709524Y-66552381D02*
X241138095Y-66552381D01*
X241423809Y-66552381D02*
X241423809Y-65552381D01*
X241328571Y-65695238D01*
X241233333Y-65790476D01*
X241138095Y-65838095D01*
X242614286Y-65552381D02*
X242138095Y-65552381D01*
X242090476Y-66028571D01*
X242138095Y-65980952D01*
X242233333Y-65933333D01*
X242471429Y-65933333D01*
X242566667Y-65980952D01*
X242614286Y-66028571D01*
X242661905Y-66123810D01*
X242661905Y-66361905D01*
X242614286Y-66457143D01*
X242566667Y-66504762D01*
X242471429Y-66552381D01*
X242233333Y-66552381D01*
X242138095Y-66504762D01*
X242090476Y-66457143D01*
X326807143Y-66452381D02*
X326473809Y-65976190D01*
X326235714Y-66452381D02*
X326235714Y-65452381D01*
X326616667Y-65452381D01*
X326711905Y-65500000D01*
X326759524Y-65547619D01*
X326807143Y-65642857D01*
X326807143Y-65785714D01*
X326759524Y-65880952D01*
X326711905Y-65928571D01*
X326616667Y-65976190D01*
X326235714Y-65976190D01*
X327759524Y-66452381D02*
X327188095Y-66452381D01*
X327473809Y-66452381D02*
X327473809Y-65452381D01*
X327378571Y-65595238D01*
X327283333Y-65690476D01*
X327188095Y-65738095D01*
X328616667Y-65452381D02*
X328426190Y-65452381D01*
X328330952Y-65500000D01*
X328283333Y-65547619D01*
X328188095Y-65690476D01*
X328140476Y-65880952D01*
X328140476Y-66261905D01*
X328188095Y-66357143D01*
X328235714Y-66404762D01*
X328330952Y-66452381D01*
X328521429Y-66452381D01*
X328616667Y-66404762D01*
X328664286Y-66357143D01*
X328711905Y-66261905D01*
X328711905Y-66023810D01*
X328664286Y-65928571D01*
X328616667Y-65880952D01*
X328521429Y-65833333D01*
X328330952Y-65833333D01*
X328235714Y-65880952D01*
X328188095Y-65928571D01*
X328140476Y-66023810D01*
X67257143Y-66402381D02*
X66923809Y-65926190D01*
X66685714Y-66402381D02*
X66685714Y-65402381D01*
X67066667Y-65402381D01*
X67161905Y-65450000D01*
X67209524Y-65497619D01*
X67257143Y-65592857D01*
X67257143Y-65735714D01*
X67209524Y-65830952D01*
X67161905Y-65878571D01*
X67066667Y-65926190D01*
X66685714Y-65926190D01*
X68209524Y-66402381D02*
X67638095Y-66402381D01*
X67923809Y-66402381D02*
X67923809Y-65402381D01*
X67828571Y-65545238D01*
X67733333Y-65640476D01*
X67638095Y-65688095D01*
X68542857Y-65402381D02*
X69209524Y-65402381D01*
X68780952Y-66402381D01*
X124757143Y-168002381D02*
X124423809Y-167526190D01*
X124185714Y-168002381D02*
X124185714Y-167002381D01*
X124566667Y-167002381D01*
X124661905Y-167050000D01*
X124709524Y-167097619D01*
X124757143Y-167192857D01*
X124757143Y-167335714D01*
X124709524Y-167430952D01*
X124661905Y-167478571D01*
X124566667Y-167526190D01*
X124185714Y-167526190D01*
X125138095Y-167097619D02*
X125185714Y-167050000D01*
X125280952Y-167002381D01*
X125519048Y-167002381D01*
X125614286Y-167050000D01*
X125661905Y-167097619D01*
X125709524Y-167192857D01*
X125709524Y-167288095D01*
X125661905Y-167430952D01*
X125090476Y-168002381D01*
X125709524Y-168002381D01*
X126614286Y-167002381D02*
X126138095Y-167002381D01*
X126090476Y-167478571D01*
X126138095Y-167430952D01*
X126233333Y-167383333D01*
X126471429Y-167383333D01*
X126566667Y-167430952D01*
X126614286Y-167478571D01*
X126661905Y-167573810D01*
X126661905Y-167811905D01*
X126614286Y-167907143D01*
X126566667Y-167954762D01*
X126471429Y-168002381D01*
X126233333Y-168002381D01*
X126138095Y-167954762D01*
X126090476Y-167907143D01*
X212307143Y-168252381D02*
X211973809Y-167776190D01*
X211735714Y-168252381D02*
X211735714Y-167252381D01*
X212116667Y-167252381D01*
X212211905Y-167300000D01*
X212259524Y-167347619D01*
X212307143Y-167442857D01*
X212307143Y-167585714D01*
X212259524Y-167680952D01*
X212211905Y-167728571D01*
X212116667Y-167776190D01*
X211735714Y-167776190D01*
X212688095Y-167347619D02*
X212735714Y-167300000D01*
X212830952Y-167252381D01*
X213069048Y-167252381D01*
X213164286Y-167300000D01*
X213211905Y-167347619D01*
X213259524Y-167442857D01*
X213259524Y-167538095D01*
X213211905Y-167680952D01*
X212640476Y-168252381D01*
X213259524Y-168252381D01*
X214116667Y-167252381D02*
X213926190Y-167252381D01*
X213830952Y-167300000D01*
X213783333Y-167347619D01*
X213688095Y-167490476D01*
X213640476Y-167680952D01*
X213640476Y-168061905D01*
X213688095Y-168157143D01*
X213735714Y-168204762D01*
X213830952Y-168252381D01*
X214021429Y-168252381D01*
X214116667Y-168204762D01*
X214164286Y-168157143D01*
X214211905Y-168061905D01*
X214211905Y-167823810D01*
X214164286Y-167728571D01*
X214116667Y-167680952D01*
X214021429Y-167633333D01*
X213830952Y-167633333D01*
X213735714Y-167680952D01*
X213688095Y-167728571D01*
X213640476Y-167823810D01*
X300057143Y-168052381D02*
X299723809Y-167576190D01*
X299485714Y-168052381D02*
X299485714Y-167052381D01*
X299866667Y-167052381D01*
X299961905Y-167100000D01*
X300009524Y-167147619D01*
X300057143Y-167242857D01*
X300057143Y-167385714D01*
X300009524Y-167480952D01*
X299961905Y-167528571D01*
X299866667Y-167576190D01*
X299485714Y-167576190D01*
X300438095Y-167147619D02*
X300485714Y-167100000D01*
X300580952Y-167052381D01*
X300819048Y-167052381D01*
X300914286Y-167100000D01*
X300961905Y-167147619D01*
X301009524Y-167242857D01*
X301009524Y-167338095D01*
X300961905Y-167480952D01*
X300390476Y-168052381D01*
X301009524Y-168052381D01*
X301342857Y-167052381D02*
X302009524Y-167052381D01*
X301580952Y-168052381D01*
X382407143Y-168352381D02*
X382073809Y-167876190D01*
X381835714Y-168352381D02*
X381835714Y-167352381D01*
X382216667Y-167352381D01*
X382311905Y-167400000D01*
X382359524Y-167447619D01*
X382407143Y-167542857D01*
X382407143Y-167685714D01*
X382359524Y-167780952D01*
X382311905Y-167828571D01*
X382216667Y-167876190D01*
X381835714Y-167876190D01*
X382788095Y-167447619D02*
X382835714Y-167400000D01*
X382930952Y-167352381D01*
X383169048Y-167352381D01*
X383264286Y-167400000D01*
X383311905Y-167447619D01*
X383359524Y-167542857D01*
X383359524Y-167638095D01*
X383311905Y-167780952D01*
X382740476Y-168352381D01*
X383359524Y-168352381D01*
X383930952Y-167780952D02*
X383835714Y-167733333D01*
X383788095Y-167685714D01*
X383740476Y-167590476D01*
X383740476Y-167542857D01*
X383788095Y-167447619D01*
X383835714Y-167400000D01*
X383930952Y-167352381D01*
X384121429Y-167352381D01*
X384216667Y-167400000D01*
X384264286Y-167447619D01*
X384311905Y-167542857D01*
X384311905Y-167590476D01*
X384264286Y-167685714D01*
X384216667Y-167733333D01*
X384121429Y-167780952D01*
X383930952Y-167780952D01*
X383835714Y-167828571D01*
X383788095Y-167876190D01*
X383740476Y-167971429D01*
X383740476Y-168161905D01*
X383788095Y-168257143D01*
X383835714Y-168304762D01*
X383930952Y-168352381D01*
X384121429Y-168352381D01*
X384216667Y-168304762D01*
X384264286Y-168257143D01*
X384311905Y-168161905D01*
X384311905Y-167971429D01*
X384264286Y-167876190D01*
X384216667Y-167828571D01*
X384121429Y-167780952D01*
X108257143Y-66902381D02*
X107923809Y-66426190D01*
X107685714Y-66902381D02*
X107685714Y-65902381D01*
X108066667Y-65902381D01*
X108161905Y-65950000D01*
X108209524Y-65997619D01*
X108257143Y-66092857D01*
X108257143Y-66235714D01*
X108209524Y-66330952D01*
X108161905Y-66378571D01*
X108066667Y-66426190D01*
X107685714Y-66426190D01*
X108590476Y-65902381D02*
X109209524Y-65902381D01*
X108876190Y-66283333D01*
X109019048Y-66283333D01*
X109114286Y-66330952D01*
X109161905Y-66378571D01*
X109209524Y-66473810D01*
X109209524Y-66711905D01*
X109161905Y-66807143D01*
X109114286Y-66854762D01*
X109019048Y-66902381D01*
X108733333Y-66902381D01*
X108638095Y-66854762D01*
X108590476Y-66807143D01*
X109542857Y-65902381D02*
X110209524Y-65902381D01*
X109780952Y-66902381D01*
X279602381Y-68992857D02*
X279126190Y-69326191D01*
X279602381Y-69564286D02*
X278602381Y-69564286D01*
X278602381Y-69183333D01*
X278650000Y-69088095D01*
X278697619Y-69040476D01*
X278792857Y-68992857D01*
X278935714Y-68992857D01*
X279030952Y-69040476D01*
X279078571Y-69088095D01*
X279126190Y-69183333D01*
X279126190Y-69564286D01*
X278602381Y-68659524D02*
X278602381Y-68040476D01*
X278983333Y-68373810D01*
X278983333Y-68230952D01*
X279030952Y-68135714D01*
X279078571Y-68088095D01*
X279173810Y-68040476D01*
X279411905Y-68040476D01*
X279507143Y-68088095D01*
X279554762Y-68135714D01*
X279602381Y-68230952D01*
X279602381Y-68516667D01*
X279554762Y-68611905D01*
X279507143Y-68659524D01*
X279602381Y-67564286D02*
X279602381Y-67373810D01*
X279554762Y-67278571D01*
X279507143Y-67230952D01*
X279364286Y-67135714D01*
X279173810Y-67088095D01*
X278792857Y-67088095D01*
X278697619Y-67135714D01*
X278650000Y-67183333D01*
X278602381Y-67278571D01*
X278602381Y-67469048D01*
X278650000Y-67564286D01*
X278697619Y-67611905D01*
X278792857Y-67659524D01*
X279030952Y-67659524D01*
X279126190Y-67611905D01*
X279173810Y-67564286D01*
X279221429Y-67469048D01*
X279221429Y-67278571D01*
X279173810Y-67183333D01*
X279126190Y-67135714D01*
X279030952Y-67088095D01*
X365107143Y-66302381D02*
X364773809Y-65826190D01*
X364535714Y-66302381D02*
X364535714Y-65302381D01*
X364916667Y-65302381D01*
X365011905Y-65350000D01*
X365059524Y-65397619D01*
X365107143Y-65492857D01*
X365107143Y-65635714D01*
X365059524Y-65730952D01*
X365011905Y-65778571D01*
X364916667Y-65826190D01*
X364535714Y-65826190D01*
X365964286Y-65635714D02*
X365964286Y-66302381D01*
X365726190Y-65254762D02*
X365488095Y-65969048D01*
X366107143Y-65969048D01*
X366678571Y-65302381D02*
X366773810Y-65302381D01*
X366869048Y-65350000D01*
X366916667Y-65397619D01*
X366964286Y-65492857D01*
X367011905Y-65683333D01*
X367011905Y-65921429D01*
X366964286Y-66111905D01*
X366916667Y-66207143D01*
X366869048Y-66254762D01*
X366773810Y-66302381D01*
X366678571Y-66302381D01*
X366583333Y-66254762D01*
X366535714Y-66207143D01*
X366488095Y-66111905D01*
X366440476Y-65921429D01*
X366440476Y-65683333D01*
X366488095Y-65492857D01*
X366535714Y-65397619D01*
X366583333Y-65350000D01*
X366678571Y-65302381D01*
X143857143Y-75352381D02*
X143523809Y-74876190D01*
X143285714Y-75352381D02*
X143285714Y-74352381D01*
X143666667Y-74352381D01*
X143761905Y-74400000D01*
X143809524Y-74447619D01*
X143857143Y-74542857D01*
X143857143Y-74685714D01*
X143809524Y-74780952D01*
X143761905Y-74828571D01*
X143666667Y-74876190D01*
X143285714Y-74876190D01*
X144238095Y-74447619D02*
X144285714Y-74400000D01*
X144380952Y-74352381D01*
X144619048Y-74352381D01*
X144714286Y-74400000D01*
X144761905Y-74447619D01*
X144809524Y-74542857D01*
X144809524Y-74638095D01*
X144761905Y-74780952D01*
X144190476Y-75352381D01*
X144809524Y-75352381D01*
X145190476Y-74447619D02*
X145238095Y-74400000D01*
X145333333Y-74352381D01*
X145571429Y-74352381D01*
X145666667Y-74400000D01*
X145714286Y-74447619D01*
X145761905Y-74542857D01*
X145761905Y-74638095D01*
X145714286Y-74780952D01*
X145142857Y-75352381D01*
X145761905Y-75352381D01*
X103207143Y-69852381D02*
X102873809Y-69376190D01*
X102635714Y-69852381D02*
X102635714Y-68852381D01*
X103016667Y-68852381D01*
X103111905Y-68900000D01*
X103159524Y-68947619D01*
X103207143Y-69042857D01*
X103207143Y-69185714D01*
X103159524Y-69280952D01*
X103111905Y-69328571D01*
X103016667Y-69376190D01*
X102635714Y-69376190D01*
X104064286Y-69185714D02*
X104064286Y-69852381D01*
X103826190Y-68804762D02*
X103588095Y-69519048D01*
X104207143Y-69519048D01*
X105111905Y-69852381D02*
X104540476Y-69852381D01*
X104826190Y-69852381D02*
X104826190Y-68852381D01*
X104730952Y-68995238D01*
X104635714Y-69090476D01*
X104540476Y-69138095D01*
X193152381Y-69292857D02*
X192676190Y-69626191D01*
X193152381Y-69864286D02*
X192152381Y-69864286D01*
X192152381Y-69483333D01*
X192200000Y-69388095D01*
X192247619Y-69340476D01*
X192342857Y-69292857D01*
X192485714Y-69292857D01*
X192580952Y-69340476D01*
X192628571Y-69388095D01*
X192676190Y-69483333D01*
X192676190Y-69864286D01*
X192152381Y-68959524D02*
X192152381Y-68340476D01*
X192533333Y-68673810D01*
X192533333Y-68530952D01*
X192580952Y-68435714D01*
X192628571Y-68388095D01*
X192723810Y-68340476D01*
X192961905Y-68340476D01*
X193057143Y-68388095D01*
X193104762Y-68435714D01*
X193152381Y-68530952D01*
X193152381Y-68816667D01*
X193104762Y-68911905D01*
X193057143Y-68959524D01*
X192580952Y-67769048D02*
X192533333Y-67864286D01*
X192485714Y-67911905D01*
X192390476Y-67959524D01*
X192342857Y-67959524D01*
X192247619Y-67911905D01*
X192200000Y-67864286D01*
X192152381Y-67769048D01*
X192152381Y-67578571D01*
X192200000Y-67483333D01*
X192247619Y-67435714D01*
X192342857Y-67388095D01*
X192390476Y-67388095D01*
X192485714Y-67435714D01*
X192533333Y-67483333D01*
X192580952Y-67578571D01*
X192580952Y-67769048D01*
X192628571Y-67864286D01*
X192676190Y-67911905D01*
X192771429Y-67959524D01*
X192961905Y-67959524D01*
X193057143Y-67911905D01*
X193104762Y-67864286D01*
X193152381Y-67769048D01*
X193152381Y-67578571D01*
X193104762Y-67483333D01*
X193057143Y-67435714D01*
X192961905Y-67388095D01*
X192771429Y-67388095D01*
X192676190Y-67435714D01*
X192628571Y-67483333D01*
X192580952Y-67578571D01*
M02*
